<?xml version="1.0" encoding="utf-8"?>
<svg version="1.1" xmlns:xlink="http://www.w3.org/1999/xlink" width="629px" height="256px" xmlns="http://www.w3.org/2000/svg">
  <defs>
    <filter x="223px" y="176px" width="629px" height="256px" filterUnits="userSpaceOnUse" id="filter1051">
      <feOffset dx="0" dy="0" in="SourceAlpha" result="shadowOffsetInner" />
      <feGaussianBlur stdDeviation="10" in="shadowOffsetInner" result="shadowGaussian" />
      <feComposite in2="shadowGaussian" operator="atop" in="SourceAlpha" result="shadowComposite" />
      <feColorMatrix type="matrix" values="0 0 0 0 0  0 0 0 0 0  0 0 0 0 0  0 0 0 0.0627450980392157 0  " in="shadowComposite" />
    </filter>
    <g id="widget1052">
      <path d="M 244 201  A 4 4 0 0 1 248 197 L 827 197  A 4 4 0 0 1 831 201 L 831 407  A 4 4 0 0 1 827 411 L 248 411  A 4 4 0 0 1 244 407 L 244 201  Z " fill-rule="nonzero" fill="#ffffff" stroke="none" />
      <path d="M 243.5 201  A 4.5 4.5 0 0 1 248 196.5 L 827 196.5  A 4.5 4.5 0 0 1 831.5 201 L 831.5 407  A 4.5 4.5 0 0 1 827 411.5 L 248 411.5  A 4.5 4.5 0 0 1 243.5 407 L 243.5 201  Z " stroke-width="1" stroke="#797979" fill="none" stroke-opacity="0.0352941176470588" />
    </g>
  </defs>
  <g transform="matrix(1 0 0 1 -223 -176 )">
    <use xlink:href="#widget1052" filter="url(#filter1051)" />
    <use xlink:href="#widget1052" />
  </g>
</svg>