<?xml version="1.0" encoding="utf-8"?>
<svg version="1.1" xmlns:xlink="http://www.w3.org/1999/xlink" width="578px" height="251px" xmlns="http://www.w3.org/2000/svg">
  <defs>
    <filter x="851px" y="176px" width="578px" height="251px" filterUnits="userSpaceOnUse" id="filter1053">
      <feOffset dx="0" dy="0" in="SourceAlpha" result="shadowOffsetInner" />
      <feGaussianBlur stdDeviation="10" in="shadowOffsetInner" result="shadowGaussian" />
      <feComposite in2="shadowGaussian" operator="atop" in="SourceAlpha" result="shadowComposite" />
      <feColorMatrix type="matrix" values="0 0 0 0 0  0 0 0 0 0  0 0 0 0 0  0 0 0 0.0627450980392157 0  " in="shadowComposite" />
    </filter>
    <g id="widget1054">
      <path d="M 872 201  A 4 4 0 0 1 876 197 L 1404 197  A 4 4 0 0 1 1408 201 L 1408 402  A 4 4 0 0 1 1404 406 L 876 406  A 4 4 0 0 1 872 402 L 872 201  Z " fill-rule="nonzero" fill="#ffffff" stroke="none" />
      <path d="M 871.5 201  A 4.5 4.5 0 0 1 876 196.5 L 1404 196.5  A 4.5 4.5 0 0 1 1408.5 201 L 1408.5 402  A 4.5 4.5 0 0 1 1404 406.5 L 876 406.5  A 4.5 4.5 0 0 1 871.5 402 L 871.5 201  Z " stroke-width="1" stroke="#797979" fill="none" stroke-opacity="0.0352941176470588" />
    </g>
  </defs>
  <g transform="matrix(1 0 0 1 -851 -176 )">
    <use xlink:href="#widget1054" filter="url(#filter1053)" />
    <use xlink:href="#widget1054" />
  </g>
</svg>