<?xml version="1.0" encoding="utf-8"?>
<svg version="1.1" xmlns:xlink="http://www.w3.org/1999/xlink" width="1222px" height="560px" xmlns="http://www.w3.org/2000/svg">
  <defs>
    <filter x="223px" y="410px" width="1222px" height="560px" filterUnits="userSpaceOnUse" id="filter787">
      <feOffset dx="0" dy="0" in="SourceAlpha" result="shadowOffsetInner" />
      <feGaussianBlur stdDeviation="10" in="shadowOffsetInner" result="shadowGaussian" />
      <feComposite in2="shadowGaussian" operator="atop" in="SourceAlpha" result="shadowComposite" />
      <feColorMatrix type="matrix" values="0 0 0 0 0  0 0 0 0 0  0 0 0 0 0  0 0 0 0.0627450980392157 0  " in="shadowComposite" />
    </filter>
    <g id="widget788">
      <path d="M 244 435  A 4 4 0 0 1 248 431 L 1420 431  A 4 4 0 0 1 1424 435 L 1424 945  A 4 4 0 0 1 1420 949 L 248 949  A 4 4 0 0 1 244 945 L 244 435  Z " fill-rule="nonzero" fill="#ffffff" stroke="none" />
      <path d="M 243.5 435  A 4.5 4.5 0 0 1 248 430.5 L 1420 430.5  A 4.5 4.5 0 0 1 1424.5 435 L 1424.5 945  A 4.5 4.5 0 0 1 1420 949.5 L 248 949.5  A 4.5 4.5 0 0 1 243.5 945 L 243.5 435  Z " stroke-width="1" stroke="#797979" fill="none" stroke-opacity="0.0352941176470588" />
    </g>
  </defs>
  <g transform="matrix(1 0 0 1 -223 -410 )">
    <use xlink:href="#widget788" filter="url(#filter787)" />
    <use xlink:href="#widget788" />
  </g>
</svg>