<?xml version="1.0" encoding="utf-8"?>
<svg version="1.1" xmlns:xlink="http://www.w3.org/1999/xlink" width="18px" height="11px" xmlns="http://www.w3.org/2000/svg">
  <g transform="matrix(1 0 0 1 -292 -634 )">
    <path d="M 17.666015625 8.91840277777778  C 17.888671875 9.16030092592592  18 9.44675925925926  18 9.77777777777778  C 18 10.1087962962963  17.888671875 10.3952546296296  17.666015625 10.6371527777778  C 17.443359375 10.8790509259259  17.1796875 11  16.875 11  L 1.125 11  C 0.8203125 11  0.556640625 10.8790509259259  0.333984375 10.6371527777778  C 0.111328125 10.3952546296296  0 10.1087962962963  0 9.77777777777778  C 0 9.44675925925926  0.111328125 9.16030092592592  0.333984375 8.91840277777778  L 8.208984375 0.362847222222223  C 8.431640625 0.120949074074073  8.6953125 0  9 0  C 9.3046875 0  9.568359375 0.120949074074073  9.791015625 0.362847222222223  L 17.666015625 8.91840277777778  Z " fill-rule="nonzero" fill="#000000" stroke="none" transform="matrix(1 0 0 1 292 634 )" />
  </g>
</svg>