<?xml version="1.0" encoding="utf-8"?>
<svg version="1.1" xmlns:xlink="http://www.w3.org/1999/xlink" width="13px" height="14px" xmlns="http://www.w3.org/2000/svg">
  <g transform="matrix(1 0 0 1 -372 -451 )">
    <path d="M 8.59049479166667 11.5846354166667  C 8.64127604166667 11.5299479166667  8.66666666666667 11.4600694444444  8.66666666666667 11.375  L 8.66666666666667 9.91666666666667  C 8.66666666666667 9.83159722222222  8.64127604166667 9.76171875  8.59049479166667 9.70703125  C 8.53971354166667 9.65234375  8.47482638888889 9.625  8.39583333333333 9.625  L 7.58333333333333 9.625  L 7.58333333333333 4.95833333333333  C 7.58333333333333 4.87326388888889  7.55794270833333 4.80338541666667  7.50716145833333 4.74869791666667  C 7.45638020833333 4.69401041666667  7.39149305555556 4.66666666666667  7.3125 4.66666666666667  L 4.60416666666667 4.66666666666667  C 4.52517361111111 4.66666666666667  4.46028645833333 4.69401041666667  4.40950520833333 4.74869791666667  C 4.35872395833333 4.80338541666667  4.33333333333333 4.87326388888889  4.33333333333333 4.95833333333333  L 4.33333333333333 6.41666666666667  C 4.33333333333333 6.50173611111111  4.35872395833333 6.57161458333333  4.40950520833333 6.62630208333333  C 4.46028645833333 6.68098958333333  4.52517361111111 6.70833333333333  4.60416666666667 6.70833333333333  L 5.41666666666667 6.70833333333333  L 5.41666666666667 9.625  L 4.60416666666667 9.625  C 4.52517361111111 9.625  4.46028645833333 9.65234375  4.40950520833333 9.70703125  C 4.35872395833333 9.76171875  4.33333333333333 9.83159722222222  4.33333333333333 9.91666666666667  L 4.33333333333333 11.375  C 4.33333333333333 11.4600694444444  4.35872395833333 11.5299479166667  4.40950520833333 11.5846354166667  C 4.46028645833333 11.6393229166667  4.52517361111111 11.6666666666667  4.60416666666667 11.6666666666667  L 8.39583333333333 11.6666666666667  C 8.47482638888889 11.6666666666667  8.53971354166667 11.6393229166667  8.59049479166667 11.5846354166667  Z M 7.50716145833333 3.41796875  C 7.55794270833333 3.36328125  7.58333333333333 3.29340277777778  7.58333333333333 3.20833333333333  L 7.58333333333333 1.75  C 7.58333333333333 1.66493055555555  7.55794270833333 1.59505208333333  7.50716145833333 1.54036458333333  C 7.45638020833333 1.48567708333333  7.39149305555556 1.45833333333333  7.3125 1.45833333333333  L 5.6875 1.45833333333333  C 5.60850694444444 1.45833333333333  5.54361979166667 1.48567708333333  5.49283854166667 1.54036458333333  C 5.44205729166667 1.59505208333333  5.41666666666667 1.66493055555555  5.41666666666667 1.75  L 5.41666666666667 3.20833333333333  C 5.41666666666667 3.29340277777778  5.44205729166667 3.36328125  5.49283854166667 3.41796875  C 5.54361979166667 3.47265625  5.60850694444444 3.5  5.6875 3.5  L 7.3125 3.5  C 7.39149305555556 3.5  7.45638020833333 3.47265625  7.50716145833333 3.41796875  Z M 12.1282552083333 3.486328125  C 12.7094184027778 4.55881076388889  13 5.73003472222222  13 7  C 13 8.26996527777778  12.7094184027778 9.44118923611111  12.1282552083333 10.513671875  C 11.5470920138889 11.5861545138889  10.7585720486111 12.4353298611111  9.7626953125 13.0611979166667  C 8.76681857638889 13.6870659722222  7.67925347222222 14  6.5 14  C 5.32074652777778 14  4.23318142361111 13.6870659722222  3.2373046875 13.0611979166667  C 2.24142795138889 12.4353298611111  1.45290798611111 11.5861545138889  0.871744791666667 10.513671875  C 0.290581597222222 9.44118923611111  0 8.26996527777778  0 7  C 0 5.73003472222222  0.290581597222222 4.55881076388889  0.871744791666667 3.486328125  C 1.45290798611111 2.41384548611111  2.24142795138889 1.56467013888889  3.2373046875 0.938802083333333  C 4.23318142361111 0.312934027777777  5.32074652777778 0  6.5 0  C 7.67925347222222 0  8.76681857638889 0.312934027777777  9.7626953125 0.938802083333333  C 10.7585720486111 1.56467013888889  11.5470920138889 2.41384548611111  12.1282552083333 3.486328125  Z " fill-rule="nonzero" fill="#000000" stroke="none" transform="matrix(1 0 0 1 372 451 )" />
  </g>
</svg>