<?xml version="1.0" encoding="utf-8"?>
<svg version="1.1" xmlns:xlink="http://www.w3.org/1999/xlink" width="1219px" height="601px" xmlns="http://www.w3.org/2000/svg">
  <defs>
    <filter x="-20px" y="-20px" width="1219px" height="601px" filterUnits="userSpaceOnUse" id="filter1040">
      <feOffset dx="0" dy="0" in="SourceAlpha" result="shadowOffsetInner" />
      <feGaussianBlur stdDeviation="10" in="shadowOffsetInner" result="shadowGaussian" />
      <feComposite in2="shadowGaussian" operator="atop" in="SourceAlpha" result="shadowComposite" />
      <feColorMatrix type="matrix" values="0 0 0 0 0  0 0 0 0 0  0 0 0 0 0  0 0 0 0.0627450980392157 0  " in="shadowComposite" />
    </filter>
    <g id="widget1041">
      <path d="M 1 5  A 4 4 0 0 1 5 1 L 1174 1  A 4 4 0 0 1 1178 5 L 1178 556  A 4 4 0 0 1 1174 560 L 5 560  A 4 4 0 0 1 1 556 L 1 5  Z " fill-rule="nonzero" fill="#ffffff" stroke="none" />
      <path d="M 0.5 5  A 4.5 4.5 0 0 1 5 0.5 L 1174 0.5  A 4.5 4.5 0 0 1 1178.5 5 L 1178.5 556  A 4.5 4.5 0 0 1 1174 560.5 L 5 560.5  A 4.5 4.5 0 0 1 0.5 556 L 0.5 5  Z " stroke-width="1" stroke="#797979" fill="none" stroke-opacity="0.0352941176470588" />
    </g>
  </defs>
  <g transform="matrix(1 0 0 1 20 20 )">
    <use xlink:href="#widget1041" filter="url(#filter1040)" />
    <use xlink:href="#widget1041" />
  </g>
</svg>