<?xml version="1.0" encoding="utf-8"?>
<svg version="1.1" xmlns:xlink="http://www.w3.org/1999/xlink" width="40px" height="48px" xmlns="http://www.w3.org/2000/svg">
  <defs>
    <filter x="94px" y="61px" width="40px" height="48px" filterUnits="userSpaceOnUse" id="filter1175">
      <feOffset dx="1" dy="1" in="SourceAlpha" result="shadowOffsetInner" />
      <feGaussianBlur stdDeviation="2.5" in="shadowOffsetInner" result="shadowGaussian" />
      <feComposite in2="shadowGaussian" operator="atop" in="SourceAlpha" result="shadowComposite" />
      <feColorMatrix type="matrix" values="0 0 0 0 0  0 0 0 0 0  0 0 0 0 0  0 0 0 0.698039215686274 0  " in="shadowComposite" />
    </filter>
    <g id="widget1176">
      <path d="M 113 102.069464668747  C 107.2 92.9273628730751  98.5 87.4421017956719  98.5 78.3  C 98.5 73.5457142857143  101.4 65.5  113 65.5  C 124.6 65.5  127.5 73.5457142857143  127.5 78.3  C 127.5 87.4421017956719  118.8 92.9273628730751  113 102.069464668747  Z " fill-rule="nonzero" fill="#009dd9" stroke="none" />
      <path d="M 113 103  C 107 93.5  98 87.8  98 78.3  C 98 73.36  101 65  113 65  C 125 65  128 73.36  128 78.3  C 128 87.8  119 93.5  113 103  Z M 113 101.138929337494  C 118.6 92.3547257461502  127 87.0842035913439  127 78.3  C 127 73.7314285714286  124.2 66  113 66  C 101.8 66  99 73.7314285714286  99 78.3  C 99 87.0842035913439  107.4 92.3547257461502  113 101.138929337494  Z " fill-rule="nonzero" fill="#ffffff" stroke="none" />
    </g>
  </defs>
  <g transform="matrix(1 0 0 1 -94 -61 )">
    <use xlink:href="#widget1176" filter="url(#filter1175)" />
    <use xlink:href="#widget1176" />
  </g>
</svg>