<?xml version="1.0" encoding="utf-8"?>
<svg version="1.1" xmlns:xlink="http://www.w3.org/1999/xlink" width="16px" height="15px" xmlns="http://www.w3.org/2000/svg">
  <g transform="matrix(1 0 0 1 -1159 -89 )">
    <path d="M 10.5729166666667 12.412109375  C 10.6354166666667 12.353515625  10.6666666666667 12.2786458333333  10.6666666666667 12.1875  L 10.6666666666667 10.625  C 10.6666666666667 10.5338541666667  10.6354166666667 10.458984375  10.5729166666667 10.400390625  C 10.5104166666667 10.341796875  10.4305555555556 10.3125  10.3333333333333 10.3125  L 9.33333333333333 10.3125  L 9.33333333333333 5.3125  C 9.33333333333333 5.22135416666667  9.30208333333333 5.146484375  9.23958333333333 5.087890625  C 9.17708333333333 5.029296875  9.09722222222222 5  9 5  L 5.66666666666667 5  C 5.56944444444445 5  5.48958333333333 5.029296875  5.42708333333333 5.087890625  C 5.36458333333333 5.146484375  5.33333333333333 5.22135416666667  5.33333333333333 5.3125  L 5.33333333333333 6.875  C 5.33333333333333 6.96614583333333  5.36458333333333 7.041015625  5.42708333333333 7.099609375  C 5.48958333333333 7.158203125  5.56944444444445 7.1875  5.66666666666667 7.1875  L 6.66666666666667 7.1875  L 6.66666666666667 10.3125  L 5.66666666666667 10.3125  C 5.56944444444445 10.3125  5.48958333333333 10.341796875  5.42708333333333 10.400390625  C 5.36458333333333 10.458984375  5.33333333333333 10.5338541666667  5.33333333333333 10.625  L 5.33333333333333 12.1875  C 5.33333333333333 12.2786458333333  5.36458333333333 12.353515625  5.42708333333333 12.412109375  C 5.48958333333333 12.470703125  5.56944444444445 12.5  5.66666666666667 12.5  L 10.3333333333333 12.5  C 10.4305555555556 12.5  10.5104166666667 12.470703125  10.5729166666667 12.412109375  Z M 9.23958333333333 3.662109375  C 9.30208333333333 3.603515625  9.33333333333333 3.52864583333333  9.33333333333333 3.4375  L 9.33333333333333 1.875  C 9.33333333333333 1.78385416666667  9.30208333333333 1.708984375  9.23958333333333 1.650390625  C 9.17708333333333 1.591796875  9.09722222222222 1.5625  9 1.5625  L 7 1.5625  C 6.90277777777778 1.5625  6.82291666666667 1.591796875  6.76041666666667 1.650390625  C 6.69791666666667 1.708984375  6.66666666666667 1.78385416666667  6.66666666666667 1.875  L 6.66666666666667 3.4375  C 6.66666666666667 3.52864583333333  6.69791666666667 3.603515625  6.76041666666667 3.662109375  C 6.82291666666667 3.720703125  6.90277777777778 3.75  7 3.75  L 9 3.75  C 9.09722222222222 3.75  9.17708333333333 3.720703125  9.23958333333333 3.662109375  Z M 14.9270833333333 3.7353515625  C 15.6423611111111 4.88444010416667  16 6.13932291666666  16 7.5  C 16 8.86067708333333  15.6423611111111 10.1155598958333  14.9270833333333 11.2646484375  C 14.2118055555556 12.4137369791667  13.2413194444444 13.3235677083333  12.015625 13.994140625  C 10.7899305555556 14.6647135416667  9.45138888888889 15  8 15  C 6.54861111111111 15  5.21006944444444 14.6647135416667  3.984375 13.994140625  C 2.75868055555556 13.3235677083333  1.78819444444444 12.4137369791667  1.07291666666667 11.2646484375  C 0.357638888888889 10.1155598958333  0 8.86067708333333  0 7.5  C 0 6.13932291666666  0.357638888888889 4.88444010416667  1.07291666666667 3.7353515625  C 1.78819444444444 2.58626302083333  2.75868055555556 1.67643229166667  3.984375 1.005859375  C 5.21006944444444 0.335286458333332  6.54861111111111 0  8 0  C 9.45138888888889 0  10.7899305555556 0.335286458333332  12.015625 1.005859375  C 13.2413194444444 1.67643229166667  14.2118055555556 2.58626302083333  14.9270833333333 3.7353515625  Z " fill-rule="nonzero" fill="#000000" stroke="none" transform="matrix(1 0 0 1 1159 89 )" />
  </g>
</svg>