<?xml version="1.0" encoding="utf-8"?>
<svg version="1.1" xmlns:xlink="http://www.w3.org/1999/xlink" width="12px" height="11px" xmlns="http://www.w3.org/2000/svg">
  <g transform="matrix(1 0 0 1 -162 -153 )">
    <path d="M 6.9296875 9.10221354166667  C 6.9765625 9.05924479166667  7 9.00434027777778  7 8.9375  L 7 7.5625  C 7 7.49565972222222  6.9765625 7.44075520833333  6.9296875 7.39778645833333  C 6.8828125 7.35481770833333  6.82291666666667 7.33333333333333  6.75 7.33333333333333  L 5.25 7.33333333333333  C 5.17708333333333 7.33333333333333  5.1171875 7.35481770833333  5.0703125 7.39778645833333  C 5.0234375 7.44075520833333  5 7.49565972222222  5 7.5625  L 5 8.9375  C 5 9.00434027777778  5.0234375 9.05924479166667  5.0703125 9.10221354166667  C 5.1171875 9.14518229166667  5.17708333333333 9.16666666666667  5.25 9.16666666666667  L 6.75 9.16666666666667  C 6.82291666666667 9.16666666666667  6.8828125 9.14518229166667  6.9296875 9.10221354166667  Z M 8.90234375 4.705078125  C 8.96744791666667 4.52842881944444  9 4.33506944444444  9 4.125  C 9 3.70486111111111  8.85546875 3.31575520833333  8.56640625 2.95768229166667  C 8.27734375 2.599609375  7.91666666666667 2.32269965277778  7.484375 2.126953125  C 7.05208333333333 1.93120659722222  6.609375 1.83333333333333  6.15625 1.83333333333333  C 4.890625 1.83333333333333  3.92447916666667 2.341796875  3.2578125 3.35872395833333  C 3.1796875 3.47330729166667  3.20052083333333 3.57356770833333  3.3203125 3.65950520833333  L 4.3515625 4.37565104166667  C 4.38802083333333 4.404296875  4.4375 4.41861979166667  4.5 4.41861979166667  C 4.58333333333333 4.41861979166667  4.6484375 4.38997395833333  4.6953125 4.33268229166667  C 4.97135416666667 4.00802951388889  5.1953125 3.78841145833333  5.3671875 3.673828125  C 5.54427083333333 3.55924479166667  5.76822916666667 3.501953125  6.0390625 3.501953125  C 6.2890625 3.501953125  6.51171875 3.56401909722222  6.70703125 3.68815104166667  C 6.90234375 3.81228298611111  7 3.953125  7 4.11067708333333  C 7 4.29210069444444  6.94791666666667 4.43771701388889  6.84375 4.54752604166667  C 6.73958333333333 4.65733506944444  6.5625 4.76475694444444  6.3125 4.86979166666667  C 5.984375 5.00347222222222  5.68359375 5.2099609375  5.41015625 5.4892578125  C 5.13671875 5.7685546875  5 6.06814236111111  5 6.38802083333333  L 5 6.64583333333333  C 5 6.71267361111111  5.0234375 6.767578125  5.0703125 6.810546875  C 5.1171875 6.853515625  5.17708333333333 6.875  5.25 6.875  L 6.75 6.875  C 6.82291666666667 6.875  6.8828125 6.853515625  6.9296875 6.810546875  C 6.9765625 6.767578125  7 6.71267361111111  7 6.64583333333333  C 7 6.55512152777778  7.05598958333333 6.43695746527778  7.16796875 6.29134114583333  C 7.27994791666667 6.14572482638889  7.421875 6.02756076388889  7.59375 5.93684895833333  C 7.76041666666667 5.85091145833333  7.88802083333333 5.78287760416667  7.9765625 5.73274739583333  C 8.06510416666667 5.6826171875  8.18489583333333 5.59906684027778  8.3359375 5.48209635416667  C 8.48697916666667 5.36512586805556  8.60286458333333 5.25054253472222  8.68359375 5.13834635416667  C 8.76432291666667 5.02615017361111  8.83723958333333 4.88172743055556  8.90234375 4.705078125  Z M 11.1953125 2.7392578125  C 11.7317708333333 3.58192274305555  12 4.50217013888889  12 5.5  C 12 6.49782986111111  11.7317708333333 7.41807725694444  11.1953125 8.2607421875  C 10.6588541666667 9.10340711805556  9.93098958333333 9.77061631944444  9.01171875 10.2623697916667  C 8.09244791666667 10.7541232638889  7.08854166666667 11  6 11  C 4.91145833333333 11  3.90755208333333 10.7541232638889  2.98828125 10.2623697916667  C 2.06901041666667 9.77061631944444  1.34114583333333 9.10340711805556  0.8046875 8.2607421875  C 0.268229166666667 7.41807725694444  0 6.49782986111111  0 5.5  C 0 4.50217013888889  0.268229166666667 3.58192274305555  0.8046875 2.7392578125  C 1.34114583333333 1.89659288194444  2.06901041666667 1.22938368055555  2.98828125 0.737630208333333  C 3.90755208333333 0.24587673611111  4.91145833333333 0  6 0  C 7.08854166666667 0  8.09244791666667 0.24587673611111  9.01171875 0.737630208333333  C 9.93098958333333 1.22938368055555  10.6588541666667 1.89659288194444  11.1953125 2.7392578125  Z " fill-rule="nonzero" fill="#333333" stroke="none" fill-opacity="0.529411764705882" transform="matrix(1 0 0 1 162 153 )" />
  </g>
</svg>