<?xml version="1.0" encoding="utf-8"?>
<svg version="1.1" xmlns:xlink="http://www.w3.org/1999/xlink" width="1074px" height="222px" xmlns="http://www.w3.org/2000/svg">
  <defs>
    <linearGradient gradientUnits="userSpaceOnUse" x1="534" y1="0" x2="534" y2="216" id="LinearGradient1179">
      <stop id="Stop1180" stop-color="#ffffff" stop-opacity="0" offset="0" />
      <stop id="Stop1181" stop-color="#ffffff" stop-opacity="0" offset="1" />
    </linearGradient>
  </defs>
  <g transform="matrix(1 0 0 1 -92.5 -198.5 )">
    <path d="M 1067.10573017089 0  L 0.581772470144554 215.473694334904  C 65.927832037895 198.064424575779  135.866842079699 150.870430120212  192.119170333124 133.065307300183  C 231.500691389063 120.600173126864  266.64330813528 91.3186447946402  311.609006486975 95.422751257823  C 336.700464639569 97.7128972880108  398.302103236299 74.1610228697156  420.746175669678 63.3607068351945  C 464.601706025542 42.2569793761589  492.625380612527 81.5426016759583  515.801129473968 51.4583985937962  C 525.210426281191 39.2442864327948  547.262323455212 53.4367407043809  559.808052531509 40.459246533317  C 572.353781607807 27.481752362253  595.655943573754 39.2778372090429  619.657467889766 35.1155724628789  C 700.128645127581 21.1605277878184  784.87327312496 21.7177002528957  811.527652420648 40.459246533317  C 830.321424894741 53.6737488370345  862.480493670132 32.8254264326911  904.822329302636 35.1155724628789  C 939.945905911594 37.0153039774772  1067.10573017089 0.290431550076158  1067.10573017089 0.290431550076158  L 1068 0  L 1067.10573017089 0  Z " fill-rule="nonzero" fill="url(#LinearGradient1179)" stroke="none" transform="matrix(1 0 0 1 95 201 )" />
    <path d="M 0.581772470144554 215.473694334904  C 65.927832037895 198.064424575779  135.866842079699 150.870430120212  192.119170333124 133.065307300183  C 231.500691389063 120.600173126864  266.64330813528 91.3186447946402  311.609006486975 95.422751257823  C 336.700464639569 97.7128972880108  398.302103236299 74.1610228697156  420.746175669678 63.3607068351945  C 464.601706025542 42.2569793761589  492.625380612527 81.5426016759583  515.801129473968 51.4583985937962  C 525.210426281191 39.2442864327948  547.262323455212 53.4367407043809  559.808052531509 40.459246533317  C 572.353781607807 27.481752362253  595.655943573754 39.2778372090429  619.657467889766 35.1155724628789  C 700.128645127581 21.1605277878184  784.87327312496 21.7177002528957  811.527652420648 40.459246533317  C 830.321424894741 53.6737488370345  862.480493670132 32.8254264326911  904.822329302636 35.1155724628789  C 939.945905911594 37.0153039774772  1067.10573017089 0.290431550076158  1067.10573017089 0.290431550076158  L 1068 0  L 1067.10573017089 0  " stroke-width="5" stroke="#0045ff" fill="none" transform="matrix(1 0 0 1 95 201 )" />
  </g>
</svg>