<?xml version="1.0" encoding="utf-8"?>
<svg version="1.1" xmlns:xlink="http://www.w3.org/1999/xlink" width="17px" height="14px" xmlns="http://www.w3.org/2000/svg">
  <g transform="matrix(1 0 0 1 -77 -378 )">
    <path d="M 14.5187950721154 0.208759014423094  C 15.7401141826923 0.208759014423094  16.7472055288462 1.12750901442303  16.8819260817307 2.31349158653848  L 8.46520432692307 7.17226562500002  L 0.258293269230762 2.43275240384617  C 0.337800480769261 1.19155649038464  1.36918569711543 0.208759014423094  2.63025841346155 0.208759014423094  L 14.5187950721154 0.208759014423094  Z M 8.9488731971154 8.64094050480765  L 16.8973858173077 4.05381610576922  L 16.8973858173077 11.4501953125  C 16.8973858173077 12.7642728365385  15.8328725961538 13.8287860576924  14.5187950721154 13.8287860576924  L 2.63025841346155 13.8287860576924  C 1.31618088942309 13.8287860576924  0.251667668269192 12.7642728365385  0.251667668269192 11.4501953125  L 0.251667668269192 4.17970252403848  L 8.08975360576926 8.70498798076926  C 8.35919471153841 8.85958533653843  8.68384915865386 8.83087439903841  8.91795372596152 8.6586087740385  C 8.92899639423081 8.65419170673078  8.93783052884612 8.64756610576922  8.9488731971154 8.64094050480765  Z " fill-rule="nonzero" fill="#8494a9" stroke="none" transform="matrix(1 0 0 1 77 378 )" />
  </g>
</svg>