<?xml version="1.0" encoding="utf-8"?>
<svg version="1.1" xmlns:xlink="http://www.w3.org/1999/xlink" width="15px" height="8px" xmlns="http://www.w3.org/2000/svg">
  <g transform="matrix(1 0 0 1 -168 -381 )">
    <path d="M 12.0089695945946 7.43243243243243  C 10.7228969594595 7.43129729729731  9.48790540540543 6.4760810810811  8.55407939189192 5.48794594594597  C 6.94023648648646 6.48289189189188  5.24764358108108 7.4574054054054  3.36243243243246 7.42562162162161  C 0.293310810810823 7.37340540540542  1.53255912162159 3.947  1.53255912162159 3.947  C 1.53255912162159 3.947  1.64802364864862 4.13600000000001  2.41956081081078 4.13600000000001  C 3.08095439189188 4.13600000000001  4.39256756756755 3.29202702702704  5.92287162162165 2.372  C 4.77354729729733 1.78286486486487  3.37254222972973 1.58137837837838  2.127972972973 2.85329729729729  C 0.745591216216184 4.26654054054056  0.954172297297333 6.09978378378378  0.954172297297333 6.09978378378378  C 0.954172297297333 6.09978378378378  0.0549324324324374 4.66837837837837  0.0506756756756488 3.17851351351351  L 0.0506756756756488 3.15694594594595  C 0.0506756756756488 3.05591891891891  0.0554645270270271 2.95432432432434  0.0645101351351229 2.85329729729729  C 0.192212837837857 1.44686486486485  1.37346283783785 0.183459459459452  2.82927364864868 0.0637027027026988  C 2.90908783783784 0.0574594594594752  2.98836993243242 0.0540540540540633  3.0671199324324 0.0540540540540633  C 4.41864020270273 0.0540540540540633  5.65150337837835 0.990540540540527  6.57788006756753 1.98264864864867  C 8.25397804054056 1.00189189189189  10.1083277027027 0.0563243243243126  11.629054054054 0.0563243243243126  C 11.6556587837838 0.0563243243243126  11.6822635135135 0.0563243243243126  11.7088682432433 0.0574594594594752  C 14.5928209459459 0.121027027027026  13.4812753378378 3.66378378378378  13.4812753378378 3.66378378378378  C 13.4812753378378 3.66378378378378  13.3003631756757 3.39532432432433  12.7826351351352 3.47478378378378  C 11.6210726351351 3.65300000000002  10.4722804054054 4.30740540540542  9.28996621621621 5.03332432432433  C 10.3882094594594 5.51802702702704  11.7035472972973 5.67694594594593  12.8698986486486 4.67064864864866  C 14.3757263513513 3.37262162162161  14.0937162162162 1.41281081081081  14.0937162162162 1.41281081081081  C 14.0937162162162 1.41281081081081  14.9471959459459 2.81583783783784  14.9493243243244 4.2847027027027  L 14.9493243243244 4.29605405405406  C 14.9493243243244 4.42091891891891  14.9429391891892 4.5457837837838  14.9291047297297 4.67064864864866  C 14.7769256756757 6.0662972972973  13.5765202702703 7.35751351351352  12.1388006756757 7.42902702702702  C 12.0967652027027 7.43129729729731  12.0552618243243 7.43243243243243  12.0132263513513 7.43243243243243  L 12.0089695945946 7.43243243243243  Z " fill-rule="nonzero" fill="#ffffff" stroke="none" transform="matrix(1 0 0 1 168 381 )" />
  </g>
</svg>