<?xml version="1.0" encoding="utf-8"?>
<svg version="1.1" xmlns:xlink="http://www.w3.org/1999/xlink" width="189px" height="189px" xmlns="http://www.w3.org/2000/svg">
  <g transform="matrix(1 0 0 1 -150 -144 )">
    <path d="M 244.5 144  C 297.42 144  339 185.58  339 238.5  C 339 291.42  297.42 333  244.5 333  C 191.58 333  150 291.42  150 238.5  C 150 185.58  191.58 144  244.5 144  Z " fill-rule="nonzero" fill="#f3f1f7" stroke="none" />
    <path d="M 244.5 144.5  C 297.14 144.5  338.5 185.86  338.5 238.5  C 338.5 291.14  297.14 332.5  244.5 332.5  C 191.86 332.5  150.5 291.14  150.5 238.5  C 150.5 185.86  191.86 144.5  244.5 144.5  Z " stroke-width="1" stroke="#fdfdfd" fill="none" />
  </g>
</svg>