<?xml version="1.0" encoding="utf-8"?>
<svg version="1.1" xmlns:xlink="http://www.w3.org/1999/xlink" width="46px" height="46px" xmlns="http://www.w3.org/2000/svg">
  <g transform="matrix(1 0 0 1 -55 -17 )">
    <path d="M 78 17  C 90.88 17  101 27.12  101 40  C 101 52.88  90.88 63  78 63  C 65.12 63  55 52.88  55 40  C 55 27.12  65.12 17  78 17  Z " fill-rule="nonzero" fill="#ffffff" stroke="none" />
    <path d="M 78 17.5  C 90.6 17.5  100.5 27.4  100.5 40  C 100.5 52.6  90.6 62.5  78 62.5  C 65.4 62.5  55.5 52.6  55.5 40  C 55.5 27.4  65.4 17.5  78 17.5  Z " stroke-width="1" stroke="#797979" fill="none" />
  </g>
</svg>