<?xml version="1.0" encoding="utf-8"?>
<svg version="1.1" xmlns:xlink="http://www.w3.org/1999/xlink" width="9px" height="6px" xmlns="http://www.w3.org/2000/svg">
  <defs>
    <mask fill="white" id="clip1135">
      <path d="M 4.50194270486338 3.16259560293133  L 7.42453830779482 0.278203864090585  C 7.60282300688425 0.0999191650010971  7.81771974239393 0.0107768154563246  8.06922851432387 0.0107768154563246  C 8.32073728625357 0.0107768154563246  8.53563402176326 0.0999191650010971  8.7139187208528 0.278203864090585  C 8.89857073062399 0.456488563180073  8.99089673550964 0.669793471019318  8.99089673550964 0.918118587608262  C 8.99089673550964 1.16644370419721  8.89857073062399 1.37974861203639  8.7139187208528 1.55803331112588  L 5.14185742838106 5.11099267155225  C 5.06544970019979 5.20013502109703  4.96994003997338 5.26221630024423  4.85532844770148 5.29723650899399  C 4.7407168554297 5.33225671774369  4.61973795247616 5.34658316677769  4.49239173884075 5.34021585609594  C 4.36504552520535 5.33384854541418  4.23929113924055 5.30678747501668  4.11512858094602 5.25903264490336  C 3.99096602265149 5.21127781479015  3.88431356873195 5.14282922496108  3.79517121918718 5.05368687541636  L 0.28041572285133 1.55803331112588  C 0.0957637130802595 1.37974861203639  0.00343770819449674 1.16644370419721  0.00343770819449674 0.918118587608262  C 0.00343770819449674 0.669793471019318  0.0957637130802595 0.456488563180073  0.28041572285133 0.278203864090585  C 0.369558072396217 0.18906151454587  0.469843215634114 0.12220475238729  0.581271152565023 0.077633577614904  C 0.692699089495932 0.0330624028425746  0.807310681767717 0.0107768154563246  0.925105929380379 0.0107768154563246  C 1.04290117699315 0.0107768154563246  1.15910459693532 0.0330624028425746  1.27371618920711 0.077633577614904  C 1.38832778147901 0.12220475238729  1.4902047523874 0.18906151454587  1.57934710193206 0.278203864090585  L 4.50194270486338 3.16259560293133  Z " fill-rule="evenodd" />
    </mask>
  </defs>
  <g transform="matrix(1 0 0 1 -961 -804 )">
    <path d="M 4.50194270486338 3.16259560293133  L 7.42453830779482 0.278203864090585  C 7.60282300688425 0.0999191650010971  7.81771974239393 0.0107768154563246  8.06922851432387 0.0107768154563246  C 8.32073728625357 0.0107768154563246  8.53563402176326 0.0999191650010971  8.7139187208528 0.278203864090585  C 8.89857073062399 0.456488563180073  8.99089673550964 0.669793471019318  8.99089673550964 0.918118587608262  C 8.99089673550964 1.16644370419721  8.89857073062399 1.37974861203639  8.7139187208528 1.55803331112588  L 5.14185742838106 5.11099267155225  C 5.06544970019979 5.20013502109703  4.96994003997338 5.26221630024423  4.85532844770148 5.29723650899399  C 4.7407168554297 5.33225671774369  4.61973795247616 5.34658316677769  4.49239173884075 5.34021585609594  C 4.36504552520535 5.33384854541418  4.23929113924055 5.30678747501668  4.11512858094602 5.25903264490336  C 3.99096602265149 5.21127781479015  3.88431356873195 5.14282922496108  3.79517121918718 5.05368687541636  L 0.28041572285133 1.55803331112588  C 0.0957637130802595 1.37974861203639  0.00343770819449674 1.16644370419721  0.00343770819449674 0.918118587608262  C 0.00343770819449674 0.669793471019318  0.0957637130802595 0.456488563180073  0.28041572285133 0.278203864090585  C 0.369558072396217 0.18906151454587  0.469843215634114 0.12220475238729  0.581271152565023 0.077633577614904  C 0.692699089495932 0.0330624028425746  0.807310681767717 0.0107768154563246  0.925105929380379 0.0107768154563246  C 1.04290117699315 0.0107768154563246  1.15910459693532 0.0330624028425746  1.27371618920711 0.077633577614904  C 1.38832778147901 0.12220475238729  1.4902047523874 0.18906151454587  1.57934710193206 0.278203864090585  L 4.50194270486338 3.16259560293133  Z " fill-rule="nonzero" fill="#666666" stroke="none" transform="matrix(1 0 0 1 961 804 )" />
    <path d="M 4.50194270486338 3.16259560293133  L 7.42453830779482 0.278203864090585  C 7.60282300688425 0.0999191650010971  7.81771974239393 0.0107768154563246  8.06922851432387 0.0107768154563246  C 8.32073728625357 0.0107768154563246  8.53563402176326 0.0999191650010971  8.7139187208528 0.278203864090585  C 8.89857073062399 0.456488563180073  8.99089673550964 0.669793471019318  8.99089673550964 0.918118587608262  C 8.99089673550964 1.16644370419721  8.89857073062399 1.37974861203639  8.7139187208528 1.55803331112588  L 5.14185742838106 5.11099267155225  C 5.06544970019979 5.20013502109703  4.96994003997338 5.26221630024423  4.85532844770148 5.29723650899399  C 4.7407168554297 5.33225671774369  4.61973795247616 5.34658316677769  4.49239173884075 5.34021585609594  C 4.36504552520535 5.33384854541418  4.23929113924055 5.30678747501668  4.11512858094602 5.25903264490336  C 3.99096602265149 5.21127781479015  3.88431356873195 5.14282922496108  3.79517121918718 5.05368687541636  L 0.28041572285133 1.55803331112588  C 0.0957637130802595 1.37974861203639  0.00343770819449674 1.16644370419721  0.00343770819449674 0.918118587608262  C 0.00343770819449674 0.669793471019318  0.0957637130802595 0.456488563180073  0.28041572285133 0.278203864090585  C 0.369558072396217 0.18906151454587  0.469843215634114 0.12220475238729  0.581271152565023 0.077633577614904  C 0.692699089495932 0.0330624028425746  0.807310681767717 0.0107768154563246  0.925105929380379 0.0107768154563246  C 1.04290117699315 0.0107768154563246  1.15910459693532 0.0330624028425746  1.27371618920711 0.077633577614904  C 1.38832778147901 0.12220475238729  1.4902047523874 0.18906151454587  1.57934710193206 0.278203864090585  L 4.50194270486338 3.16259560293133  Z " stroke-width="2" stroke="#797979" fill="none" transform="matrix(1 0 0 1 961 804 )" mask="url(#clip1135)" />
  </g>
</svg>