<?xml version="1.0" encoding="utf-8"?>
<svg version="1.1" xmlns:xlink="http://www.w3.org/1999/xlink" width="63px" height="32px" xmlns="http://www.w3.org/2000/svg">
  <g transform="matrix(1 0 0 1 -232 -538 )">
    <path d="M 232.5 542  A 3.5 3.5 0 0 1 236 538.5 L 291 538.5  A 3.5 3.5 0 0 1 294.5 542 L 294.5 566  A 3.5 3.5 0 0 1 291 569.5 L 236 569.5  A 3.5 3.5 0 0 1 232.5 566 L 232.5 542  Z " fill-rule="nonzero" fill="#0099ff" stroke="none" fill-opacity="0.0980392156862745" />
    <path d="M 232.5 542  A 3.5 3.5 0 0 1 236 538.5 L 291 538.5  A 3.5 3.5 0 0 1 294.5 542 L 294.5 566  A 3.5 3.5 0 0 1 291 569.5 L 236 569.5  A 3.5 3.5 0 0 1 232.5 566 L 232.5 542  Z " stroke-width="1" stroke="#a7d2f9" fill="none" />
  </g>
</svg>