<?xml version="1.0" encoding="utf-8"?>
<svg version="1.1" xmlns:xlink="http://www.w3.org/1999/xlink" width="63px" height="32px" xmlns="http://www.w3.org/2000/svg">
  <g transform="matrix(1 0 0 1 -232 -378 )">
    <path d="M 233 382  A 3 3 0 0 1 236 379 L 291 379  A 3 3 0 0 1 294 382 L 294 406  A 3 3 0 0 1 291 409 L 236 409  A 3 3 0 0 1 233 406 L 233 382  Z " fill-rule="nonzero" fill="#909399" stroke="none" fill-opacity="0.0980392156862745" />
    <path d="M 232.5 382  A 3.5 3.5 0 0 1 236 378.5 L 291 378.5  A 3.5 3.5 0 0 1 294.5 382 L 294.5 406  A 3.5 3.5 0 0 1 291 409.5 L 236 409.5  A 3.5 3.5 0 0 1 232.5 406 L 232.5 382  Z " stroke-width="1" stroke="#909399" fill="none" stroke-opacity="0.2" />
  </g>
</svg>