<?xml version="1.0" encoding="utf-8"?>
<svg version="1.1" xmlns:xlink="http://www.w3.org/1999/xlink" width="17px" height="15px" xmlns="http://www.w3.org/2000/svg">
  <g transform="matrix(1 0 0 1 -1078 -134 )">
    <path d="M 16.3931957612939 0  C 16.5196133110244 0  16.6333891057817 0.0306919642857156  16.7345231455661 0.0920758928571436  C 16.9431121026213 0.226004464285715  17.0284439486894 0.404575892857142  16.9905186837702 0.627790178571429  L 14.5633017289459 13.4849330357143  C 14.5316973415133 13.6467633928571  14.4305633017289 13.7723214285714  14.2598996095929 13.8616071428571  C 14.1714073247816 13.90625  14.0734337237405 13.9285714285714  13.9659788064696 13.9285714285714  C 13.8964491541179 13.9285714285714  13.8205986242796 13.9146205357143  13.7384272169548 13.88671875  L 9.44339096486336 12.3381696428571  L 7.148912437256 14.8074776785714  C 7.03513664249861 14.9358258928571  6.88027514407883 15  6.68432794199665 15  C 6.60215653467187 15  6.53262688232013 14.9888392857143  6.47573898494144 14.9665178571429  C 6.35564231269753 14.9274553571429  6.25924893102807 14.8618861607143  6.18655883993307 14.7698102678571  C 6.11386874883807 14.677734375  6.07752370329057 14.5758928571429  6.07752370329057 14.4642857142857  L 6.07752370329057 11.54296875  L 14.2693809258226 2.67857142857143  L 4.13385387618516 10.4213169642857  L 0.388733965421082 9.06529017857143  C 0.154861498419781 8.98716517857143  0.0284439486893475 8.83370535714286  0.00948131622978249 8.60491071428572  C -0.00316043874326083 8.38169642857143  0.0979736010410857 8.21707589285714  0.312883435582822 8.11104910714286  L 16.0897936419409 0.075334821428571  C 16.1846068042387 0.0251116071428564  16.2857408440231 0  16.3931957612939 0  Z " fill-rule="nonzero" fill="#000000" stroke="none" transform="matrix(1 0 0 1 1078 134 )" />
  </g>
</svg>