<?xml version="1.0" encoding="utf-8"?>
<svg version="1.1" xmlns:xlink="http://www.w3.org/1999/xlink" width="18px" height="11px" xmlns="http://www.w3.org/2000/svg">
  <g transform="matrix(1 0 0 1 -772 -247 )">
    <path d="M 17.666015625 0.362847222222223  C 17.888671875 0.604745370370369  18 0.891203703703701  18 1.22222222222222  C 18 1.55324074074074  17.888671875 1.83969907407407  17.666015625 2.08159722222222  L 9.791015625 10.6371527777778  C 9.568359375 10.8790509259259  9.3046875 11  9 11  C 8.6953125 11  8.431640625 10.8790509259259  8.208984375 10.6371527777778  L 0.333984375 2.08159722222222  C 0.111328125 1.83969907407407  0 1.55324074074074  0 1.22222222222222  C 0 0.891203703703701  0.111328125 0.604745370370369  0.333984375 0.362847222222223  C 0.556640625 0.120949074074073  0.8203125 0  1.125 0  L 16.875 0  C 17.1796875 0  17.443359375 0.120949074074073  17.666015625 0.362847222222223  Z " fill-rule="nonzero" fill="#000000" stroke="none" transform="matrix(1 0 0 1 772 247 )" />
  </g>
</svg>