<?xml version="1.0" encoding="utf-8"?>
<svg version="1.1" xmlns:xlink="http://www.w3.org/1999/xlink" width="40px" height="50px" xmlns="http://www.w3.org/2000/svg">
  <defs>
    <filter x="786px" y="208px" width="40px" height="50px" filterUnits="userSpaceOnUse" id="filter923">
      <feOffset dx="1" dy="1" in="SourceAlpha" result="shadowOffsetInner" />
      <feGaussianBlur stdDeviation="2.5" in="shadowOffsetInner" result="shadowGaussian" />
      <feComposite in2="shadowGaussian" operator="atop" in="SourceAlpha" result="shadowComposite" />
      <feColorMatrix type="matrix" values="0 0 0 0 0  0 0 0 0 0  0 0 0 0 0  0 0 0 0.698039215686274 0  " in="shadowComposite" />
    </filter>
    <g id="widget924">
      <path d="M 805 251.036928468354  C 799.2 241.40734059591  790.5 235.629587872444  790.5 226  C 790.5 220.985714285714  793.4 212.5  805 212.5  C 816.6 212.5  819.5 220.985714285714  819.5 226  C 819.5 235.629587872444  810.8 241.40734059591  805 251.036928468354  Z " fill-rule="nonzero" fill="#009dd9" stroke="none" />
      <path d="M 805 252  C 799 242  790 236  790 226  C 790 220.8  793 212  805 212  C 817 212  820 220.8  820 226  C 820 236  811 242  805 252  Z M 805 250.073856936707  C 810.6 240.81468119182  819 235.259175744887  819 226  C 819 221.171428571429  816.2 213  805 213  C 793.8 213  791 221.171428571429  791 226  C 791 235.259175744887  799.4 240.81468119182  805 250.073856936707  Z " fill-rule="nonzero" fill="#ffffff" stroke="none" />
    </g>
  </defs>
  <g transform="matrix(1 0 0 1 -786 -208 )">
    <use xlink:href="#widget924" filter="url(#filter923)" />
    <use xlink:href="#widget924" />
  </g>
</svg>