<?xml version="1.0" encoding="utf-8"?>
<svg version="1.1" xmlns:xlink="http://www.w3.org/1999/xlink" width="6px" height="11px" xmlns="http://www.w3.org/2000/svg">
  <defs>
    <mask fill="white" id="clip388">
      <path d="M 5.58825000000002 0.326625000000149  C 5.83237499999996 0.574687499999982  5.83237499999996 0.972375000000056  5.58628125000007 1.21846874999983  L 1.58184374999996 5.22290625000005  L 5.58628125000007 9.22734374999982  C 5.83237500000007 9.47343749999982  5.83237500000007 9.87309374999995  5.58628125000007 10.1191875  C 5.34018750000007 10.36528125  4.94053124999994 10.36528125  4.69443749999994 10.1191875  L 0.312000000000012 5.73478124999997  C 0.288374999999974 5.71706249999988  0.264749999999935 5.69540625000013  0.241125000000011 5.67374999999993  C 0.117093749999981 5.54971875000001  0.0560625000000528 5.38631250000003  0.0560625000000528 5.22290625000005  C 0.0540937499999927 5.05950000000007  0.117093749999981 4.89609375000009  0.241125000000011 4.77206249999995  C 0.262781249999989 4.75040624999997  0.286406250000027 4.72874999999999  0.312000000000012 4.71103124999991  L 4.69640625 0.326625000000149  C 4.9425 0.0805312500001492  5.34215625000002 0.0805312500001492  5.58825000000002 0.326625000000149  Z " fill-rule="evenodd" />
    </mask>
  </defs>
  <g transform="matrix(1 0 0 1 -575 -802 )">
    <path d="M 5.58825000000002 0.326625000000149  C 5.83237499999996 0.574687499999982  5.83237499999996 0.972375000000056  5.58628125000007 1.21846874999983  L 1.58184374999996 5.22290625000005  L 5.58628125000007 9.22734374999982  C 5.83237500000007 9.47343749999982  5.83237500000007 9.87309374999995  5.58628125000007 10.1191875  C 5.34018750000007 10.36528125  4.94053124999994 10.36528125  4.69443749999994 10.1191875  L 0.312000000000012 5.73478124999997  C 0.288374999999974 5.71706249999988  0.264749999999935 5.69540625000013  0.241125000000011 5.67374999999993  C 0.117093749999981 5.54971875000001  0.0560625000000528 5.38631250000003  0.0560625000000528 5.22290625000005  C 0.0540937499999927 5.05950000000007  0.117093749999981 4.89609375000009  0.241125000000011 4.77206249999995  C 0.262781249999989 4.75040624999997  0.286406250000027 4.72874999999999  0.312000000000012 4.71103124999991  L 4.69640625 0.326625000000149  C 4.9425 0.0805312500001492  5.34215625000002 0.0805312500001492  5.58825000000002 0.326625000000149  Z " fill-rule="nonzero" fill="#d7d7d7" stroke="none" transform="matrix(1 0 0 1 575 802 )" />
    <path d="M 5.58825000000002 0.326625000000149  C 5.83237499999996 0.574687499999982  5.83237499999996 0.972375000000056  5.58628125000007 1.21846874999983  L 1.58184374999996 5.22290625000005  L 5.58628125000007 9.22734374999982  C 5.83237500000007 9.47343749999982  5.83237500000007 9.87309374999995  5.58628125000007 10.1191875  C 5.34018750000007 10.36528125  4.94053124999994 10.36528125  4.69443749999994 10.1191875  L 0.312000000000012 5.73478124999997  C 0.288374999999974 5.71706249999988  0.264749999999935 5.69540625000013  0.241125000000011 5.67374999999993  C 0.117093749999981 5.54971875000001  0.0560625000000528 5.38631250000003  0.0560625000000528 5.22290625000005  C 0.0540937499999927 5.05950000000007  0.117093749999981 4.89609375000009  0.241125000000011 4.77206249999995  C 0.262781249999989 4.75040624999997  0.286406250000027 4.72874999999999  0.312000000000012 4.71103124999991  L 4.69640625 0.326625000000149  C 4.9425 0.0805312500001492  5.34215625000002 0.0805312500001492  5.58825000000002 0.326625000000149  Z " stroke-width="2" stroke="#797979" fill="none" transform="matrix(1 0 0 1 575 802 )" mask="url(#clip388)" />
  </g>
</svg>