<?xml version="1.0" encoding="utf-8"?>
<svg version="1.1" xmlns:xlink="http://www.w3.org/1999/xlink" width="14px" height="15px" xmlns="http://www.w3.org/2000/svg">
  <g transform="matrix(1 0 0 1 -24 -285 )">
    <path d="M 10.5364583333333 0.569196428571429  L 13.3802083333333 3.18080357142857  C 13.5503472222222 3.33705357142857  13.6961805555556 3.54910714285714  13.8177083333333 3.81696428571429  C 13.9392361111111 4.08482142857143  14 4.33035714285714  14 4.55357142857143  L 14 14.1964285714286  C 14 14.4196428571429  13.9149305555556 14.609375  13.7447916666667 14.765625  C 13.5746527777778 14.921875  13.3680555555556 15  13.125 15  L 0.875 15  C 0.631944444444445 15  0.425347222222222 14.921875  0.255208333333333 14.765625  C 0.0850694444444444 14.609375  0 14.4196428571429  0 14.1964285714286  L 0 0.803571428571429  C 0 0.580357142857142  0.0850694444444444 0.390624999999999  0.255208333333333 0.234375  C 0.425347222222222 0.0781250000000006  0.631944444444445 0  0.875 0  L 9.04166666666667 0  C 9.28472222222222 0  9.55208333333333 0.0558035714285721  9.84375 0.167410714285715  C 10.1354166666667 0.279017857142857  10.3663194444444 0.412946428571428  10.5364583333333 0.569196428571429  Z M 9.70703125 1.32254464285714  C 9.63411458333333 1.25558035714286  9.50954861111111 1.19419642857143  9.33333333333333 1.13839285714286  L 9.33333333333333 4.28571428571429  L 12.7604166666667 4.28571428571429  C 12.6996527777778 4.12388392857143  12.6328125 4.00948660714286  12.5598958333333 3.94252232142857  L 9.70703125 1.32254464285714  Z M 1.16666666666667 14  L 12.8333333333333 14  L 12.8333333333333 5.35714285714286  L 9.04166666666667 5.35714285714286  C 8.79861111111111 5.35714285714286  8.59201388888889 5.27901785714286  8.421875 5.12276785714286  C 8.25173611111111 4.96651785714286  8.16666666666667 4.77678571428571  8.16666666666667 4.55357142857143  L 8.16666666666667 1.07142857142857  L 1.16666666666667 1.07142857142857  L 1.16666666666667 14  Z M 3.5 7.23214285714286  L 3.5 6.69642857142857  C 3.5 6.61830357142857  3.52734375 6.55412946428571  3.58203125 6.50390625  C 3.63671875 6.45368303571429  3.70659722222222 6.42857142857143  3.79166666666667 6.42857142857143  L 10.2083333333333 6.42857142857143  C 10.2934027777778 6.42857142857143  10.36328125 6.45368303571429  10.41796875 6.50390625  C 10.47265625 6.55412946428571  10.5 6.61830357142857  10.5 6.69642857142857  L 10.5 7.23214285714286  C 10.5 7.31026785714286  10.47265625 7.37444196428571  10.41796875 7.42466517857143  C 10.36328125 7.47488839285714  10.2934027777778 7.5  10.2083333333333 7.5  L 3.79166666666667 7.5  C 3.70659722222222 7.5  3.63671875 7.47488839285714  3.58203125 7.42466517857143  C 3.52734375 7.37444196428571  3.5 7.31026785714286  3.5 7.23214285714286  Z M 3.79166666666667 8.57142857142857  L 10.2083333333333 8.57142857142857  C 10.2934027777778 8.57142857142857  10.36328125 8.59654017857143  10.41796875 8.64676339285714  C 10.47265625 8.69698660714286  10.5 8.76116071428571  10.5 8.83928571428572  L 10.5 9.375  C 10.5 9.453125  10.47265625 9.51729910714286  10.41796875 9.56752232142857  C 10.36328125 9.61774553571428  10.2934027777778 9.64285714285714  10.2083333333333 9.64285714285714  L 3.79166666666667 9.64285714285714  C 3.70659722222222 9.64285714285714  3.63671875 9.61774553571428  3.58203125 9.56752232142857  C 3.52734375 9.51729910714286  3.5 9.453125  3.5 9.375  L 3.5 8.83928571428572  C 3.5 8.76116071428571  3.52734375 8.69698660714286  3.58203125 8.64676339285714  C 3.63671875 8.59654017857143  3.70659722222222 8.57142857142857  3.79166666666667 8.57142857142857  Z M 3.79166666666667 10.7142857142857  L 10.2083333333333 10.7142857142857  C 10.2934027777778 10.7142857142857  10.36328125 10.7393973214286  10.41796875 10.7896205357143  C 10.47265625 10.83984375  10.5 10.9040178571429  10.5 10.9821428571429  L 10.5 11.5178571428571  C 10.5 11.5959821428571  10.47265625 11.66015625  10.41796875 11.7103794642857  C 10.36328125 11.7606026785714  10.2934027777778 11.7857142857143  10.2083333333333 11.7857142857143  L 3.79166666666667 11.7857142857143  C 3.70659722222222 11.7857142857143  3.63671875 11.7606026785714  3.58203125 11.7103794642857  C 3.52734375 11.66015625  3.5 11.5959821428571  3.5 11.5178571428571  L 3.5 10.9821428571429  C 3.5 10.9040178571429  3.52734375 10.83984375  3.58203125 10.7896205357143  C 3.63671875 10.7393973214286  3.70659722222222 10.7142857142857  3.79166666666667 10.7142857142857  Z " fill-rule="nonzero" fill="#7f7f7f" stroke="none" transform="matrix(1 0 0 1 24 285 )" />
  </g>
</svg>