<?xml version="1.0" encoding="utf-8"?>
<svg version="1.1" xmlns:xlink="http://www.w3.org/1999/xlink" width="1210px" height="934px" xmlns="http://www.w3.org/2000/svg">
  <defs>
    <filter x="-19px" y="-20px" width="1210px" height="934px" filterUnits="userSpaceOnUse" id="filter970">
      <feOffset dx="0" dy="0" in="SourceAlpha" result="shadowOffsetInner" />
      <feGaussianBlur stdDeviation="10" in="shadowOffsetInner" result="shadowGaussian" />
      <feComposite in2="shadowGaussian" operator="atop" in="SourceAlpha" result="shadowComposite" />
      <feColorMatrix type="matrix" values="0 0 0 0 0  0 0 0 0 0  0 0 0 0 0  0 0 0 0.0627450980392157 0  " in="shadowComposite" />
    </filter>
    <g id="widget971">
      <path d="M 2 5  A 4 4 0 0 1 6 1 L 1166 1  A 4 4 0 0 1 1170 5 L 1170 889  A 4 4 0 0 1 1166 893 L 6 893  A 4 4 0 0 1 2 889 L 2 5  Z " fill-rule="nonzero" fill="#ffffff" stroke="none" />
      <path d="M 1.5 5  A 4.5 4.5 0 0 1 6 0.5 L 1166 0.5  A 4.5 4.5 0 0 1 1170.5 5 L 1170.5 889  A 4.5 4.5 0 0 1 1166 893.5 L 6 893.5  A 4.5 4.5 0 0 1 1.5 889 L 1.5 5  Z " stroke-width="1" stroke="#797979" fill="none" stroke-opacity="0.0352941176470588" />
    </g>
  </defs>
  <g transform="matrix(1 0 0 1 19 20 )">
    <use xlink:href="#widget971" filter="url(#filter970)" />
    <use xlink:href="#widget971" />
  </g>
</svg>