<?xml version="1.0" encoding="utf-8"?>
<svg version="1.1" xmlns:xlink="http://www.w3.org/1999/xlink" width="19px" height="11px" xmlns="http://www.w3.org/2000/svg">
  <g transform="matrix(1 0 0 1 -1583 -1260 )">
    <path d="M 18.6474609375 8.91840277777778  C 18.8824869791667 9.16030092592592  19 9.44675925925926  19 9.77777777777778  C 19 10.1087962962963  18.8824869791667 10.3952546296296  18.6474609375 10.6371527777778  C 18.4124348958333 10.8790509259259  18.1341145833333 11  17.8125 11  L 1.1875 11  C 0.865885416666667 11  0.587565104166667 10.8790509259259  0.3525390625 10.6371527777778  C 0.117513020833333 10.3952546296296  0 10.1087962962963  0 9.77777777777778  C 0 9.44675925925926  0.117513020833333 9.16030092592592  0.3525390625 8.91840277777778  L 8.6650390625 0.362847222222223  C 8.90006510416667 0.120949074074073  9.17838541666667 0  9.5 0  C 9.82161458333333 0  10.0999348958333 0.120949074074073  10.3349609375 0.362847222222223  L 18.6474609375 8.91840277777778  Z " fill-rule="nonzero" fill="#000000" stroke="none" transform="matrix(1 0 0 1 1583 1260 )" />
  </g>
</svg>