<?xml version="1.0" encoding="utf-8"?>
<svg version="1.1" xmlns:xlink="http://www.w3.org/1999/xlink" width="15px" height="14px" xmlns="http://www.w3.org/2000/svg">
  <g transform="matrix(1 0 0 1 -25 -126 )">
    <path d="M 3.9219512195122 5.38461538461538  L 1.55853658536585 5.38461538461538  L 6.11707317073171 10.9795673076923  L 3.9219512195122 5.38461538461538  Z M 4.94634146341463 5.38461538461538  L 7.5 11.8798076923077  L 10.0536585365854 5.38461538461538  L 4.94634146341463 5.38461538461538  Z M 1.41219512195122 4.30769230769231  L 3.94390243902439 4.30769230769231  L 5.43658536585366 1.07692307692308  L 3.51951219512195 1.07692307692308  L 1.41219512195122 4.30769230769231  Z M 11.0780487804878 5.38461538461538  L 8.88292682926829 10.9795673076923  L 13.4414634146341 5.38461538461538  L 11.0780487804878 5.38461538461538  Z M 6.49756097560976 1.07692307692308  L 5.00487804878049 4.30769230769231  L 9.99512195121951 4.30769230769231  L 8.50243902439024 1.07692307692308  L 6.49756097560976 1.07692307692308  Z M 9.56341463414634 1.07692307692308  L 11.0560975609756 4.30769230769231  L 13.5878048780488 4.30769230769231  L 11.480487804878 1.07692307692308  L 9.56341463414634 1.07692307692308  Z M 11.7146341463415 0  C 11.8756097560976 0  12 0.0729166666666656  12.0878048780488 0.21875  L 14.8975609756098 4.52644230769231  C 14.9658536585366 4.62740384615385  14.9975609756098 4.74379006410256  14.9926829268293 4.87560096153846  C 14.9878048780488 5.00741185897436  14.9463414634146 5.12099358974359  14.8682926829268 5.21634615384615  L 7.84390243902439 13.8317307692308  C 7.75609756097561 13.9439102564103  7.64146341463415 14  7.5 14  C 7.35853658536585 14  7.24390243902439 13.9439102564103  7.15609756097561 13.8317307692308  L 0.131707317073171 5.21634615384615  C 0.0536585365853659 5.12099358974359  0.0121951219512195 5.00741185897436  0.00731707317073171 4.87560096153846  C 0.0024390243902439 4.74379006410256  0.0341463414634146 4.62740384615385  0.102439024390244 4.52644230769231  L 2.91219512195122 0.21875  C 3 0.0729166666666656  3.12439024390244 0  3.28536585365854 0  L 11.7146341463415 0  Z " fill-rule="nonzero" fill="#7f7f7f" stroke="none" transform="matrix(1 0 0 1 25 126 )" />
  </g>
</svg>