<?xml version="1.0" encoding="utf-8"?>
<svg version="1.1" xmlns:xlink="http://www.w3.org/1999/xlink" width="14px" height="15px" xmlns="http://www.w3.org/2000/svg">
  <g transform="matrix(1 0 0 1 -25 -175 )">
    <path d="M 4.2 7.5  L 4.9 6.42857142857143  L 7.7 10.7142857142857  L 4.9 15  L 0 7.5  L 4.9 0  L 6.125 1.875  L 5.425 2.94642857142857  L 4.9 2.14285714285714  L 1.4 7.5  L 4.9 12.8571428571429  L 6.30729166666667 10.703125  L 4.2 7.5  Z M 6.3 4.28571428571429  L 9.1 0  L 14 7.5  L 9.1 15  L 7.875 13.125  L 8.575 12.0535714285714  L 9.1 12.8571428571429  L 12.6 7.5  L 9.1 2.14285714285714  L 7.69270833333333 4.296875  L 9.8 7.5  L 9.1 8.57142857142857  L 6.3 4.28571428571429  Z " fill-rule="nonzero" fill="#7f7f7f" stroke="none" transform="matrix(1 0 0 1 25 175 )" />
  </g>
</svg>