<?xml version="1.0" encoding="utf-8"?>
<svg version="1.1" xmlns:xlink="http://www.w3.org/1999/xlink" width="14px" height="15px" xmlns="http://www.w3.org/2000/svg">
  <g transform="matrix(1 0 0 1 -24 -338 )">
    <path d="M 11.6666666666667 4.28571428571429  C 11.6666666666667 5.10602678571429  11.4266493055556 5.86495535714286  10.9466145833333 6.5625  C 11.2322048611111 6.640625  11.5041232638889 6.74665178571429  11.7623697916667 6.88058035714286  C 12.0206163194444 7.01450892857143  12.291015625 7.21819196428571  12.5735677083333 7.49162946428571  C 12.8561197916667 7.76506696428571  13.09765625 8.08733258928571  13.2981770833333 8.45842633928572  C 13.4986979166667 8.82952008928571  13.6657986111111 9.30943080357143  13.7994791666667 9.89815848214286  C 13.9331597222222 10.4868861607143  14 11.1467633928571  14 11.8777901785714  C 14 12.7371651785714  13.6961805555556 13.4723772321429  13.0885416666667 14.0834263392857  C 12.4809027777778 14.6944754464286  11.7486979166667 15  10.8919270833333 15  L 3.10807291666667 15  C 2.25130208333333 15  1.51909722222222 14.6944754464286  0.911458333333333 14.0834263392857  C 0.303819444444444 13.4723772321429  0 12.7371651785714  0 11.8777901785714  C 0 11.1467633928571  0.0668402777777778 10.4868861607143  0.200520833333333 9.89815848214286  C 0.334201388888889 9.30943080357143  0.501302083333333 8.82952008928571  0.701822916666667 8.45842633928572  C 0.90234375 8.08733258928571  1.14388020833333 7.76506696428571  1.42643229166667 7.49162946428571  C 1.708984375 7.21819196428571  1.97938368055556 7.01450892857143  2.23763020833333 6.88058035714286  C 2.49587673611111 6.74665178571429  2.76779513888889 6.640625  3.05338541666667 6.5625  C 2.57335069444445 5.86495535714286  2.33333333333333 5.10602678571429  2.33333333333333 4.28571428571429  C 2.33333333333333 3.70535714285714  2.45638020833333 3.15150669642857  2.70247395833333 2.62416294642857  C 2.94856770833333 2.09681919642857  3.28125 1.640625  3.70052083333333 1.25558035714286  C 4.11979166666667 0.870535714285715  4.61653645833333 0.565011160714285  5.19075520833333 0.339006696428571  C 5.76497395833333 0.113002232142856  6.36805555555556 0  7 0  C 7.63194444444445 0  8.23502604166667 0.113002232142856  8.80924479166667 0.339006696428571  C 9.38346354166667 0.565011160714285  9.88020833333333 0.870535714285715  10.2994791666667 1.25558035714286  C 10.71875 1.640625  11.0514322916667 2.09681919642857  11.2975260416667 2.62416294642857  C 11.5436197916667 3.15150669642857  11.6666666666667 3.70535714285714  11.6666666666667 4.28571428571429  Z M 9.474609375 2.01311383928571  C 8.791015625 1.38532366071429  7.96614583333333 1.07142857142857  7 1.07142857142857  C 6.03385416666667 1.07142857142857  5.208984375 1.38532366071429  4.525390625 2.01311383928571  C 3.841796875 2.64090401785714  3.5 3.3984375  3.5 4.28571428571429  C 3.5 5.17299107142857  3.841796875 5.93052455357143  4.525390625 6.55831473214286  C 5.208984375 7.18610491071429  6.03385416666667 7.5  7 7.5  C 7.96614583333333 7.5  8.791015625 7.18610491071429  9.474609375 6.55831473214286  C 10.158203125 5.93052455357143  10.5 5.17299107142857  10.5 4.28571428571429  C 10.5 3.3984375  10.158203125 2.64090401785714  9.474609375 2.01311383928571  Z M 3.10807291666667 13.9285714285714  L 10.8919270833333 13.9285714285714  C 11.4266493055556 13.9285714285714  11.8838975694444 13.7290736607143  12.263671875 13.330078125  C 12.6434461805556 12.9310825892857  12.8333333333333 12.4469866071429  12.8333333333333 11.8777901785714  C 12.8333333333333 10.5440848214286  12.5948350694444 9.4921875  12.1178385416667 8.72209821428572  C 11.6408420138889 7.95200892857143  10.9557291666667 7.54743303571428  10.0625 7.50837053571429  C 9.18142361111111 8.21707589285714  8.16059027777778 8.57142857142857  7 8.57142857142857  C 5.83940972222222 8.57142857142857  4.81857638888889 8.21707589285714  3.9375 7.50837053571429  C 3.04427083333333 7.54743303571428  2.35915798611111 7.95200892857143  1.88216145833333 8.72209821428572  C 1.40516493055556 9.4921875  1.16666666666667 10.5440848214286  1.16666666666667 11.8777901785714  C 1.16666666666667 12.4469866071429  1.35655381944444 12.9310825892857  1.736328125 13.330078125  C 2.11610243055556 13.7290736607143  2.57335069444445 13.9285714285714  3.10807291666667 13.9285714285714  Z " fill-rule="nonzero" fill="#7f7f7f" stroke="none" transform="matrix(1 0 0 1 24 338 )" />
  </g>
</svg>