<?xml version="1.0" encoding="utf-8"?>
<svg version="1.1" xmlns:xlink="http://www.w3.org/1999/xlink" width="22px" height="20px" xmlns="http://www.w3.org/2000/svg">
  <defs>
    <mask fill="white" id="clip1003">
      <path d="M 21.47890625 12.7  C 21.4765625 13.33515625  21.00078125 13.85546875  20.41015625 13.85546875  L 8.24140625000001 13.85546875  C 7.65078124999999 13.85546875  7.17265624999999 13.33515625  7.17265624999999 12.7  C 7.17265624999999 12.06484375  7.6484375 11.54453125  8.24140625000001 11.54453125  L 20.41015625 11.54453125  C 21.00078125 11.54453125  21.47890625 12.06484375  21.47890625 12.7  Z M 21.47890625 7.30703125  C 21.4765625 7.9421875  21.00078125 8.4625  20.41015625 8.4625  L 8.24140625000001 8.4625  C 7.65078124999999 8.4625  7.17265624999999 7.9421875  7.17265624999999 7.30703125  C 7.17265624999999 6.671875  7.6484375 6.1515625  8.24140625000001 6.1515625  L 20.41015625 6.1515625  C 21.00078125 6.1515625  21.47890625 6.671875  21.47890625 7.30703125  Z M 21.47890625 2.07109375  C 21.49765625 2.725  20.98203125 3.2640625  20.3328125 3.2640625  L 1.69999999999999 3.2640625  C 1.06953125000001 3.2640625  0.516406249999989 2.78359375  0.497656250000006 2.14609375  C 0.478906249999994 1.4921875  0.9921875 0.953125  1.64140624999999 0.953125  L 20.2765625 0.953125  C 20.90703125 0.953125  21.46015625 1.43359375  21.47890625 2.07109375  Z M 0.497656250000006 13.83671875  C 0.497656250000006 13.85546875  0.497656250000006 13.85546875  0.497656250000006 13.83671875  L 0.497656250000006 6.17265625  L 5.81796875000001 10.0046875  L 0.497656250000006 13.83671875  Z M 0.497656250000006 17.93828125  C 0.478906249999994 17.284375  0.9921875 16.7453125  1.64140624999999 16.7453125  L 20.2765625 16.7453125  C 20.90703125 16.7453125  21.46015625 17.22578125  21.47890625 17.86328125  C 21.49765625 18.5171875  20.98203125 19.05625  20.33515625 19.05625  L 1.69999999999999 19.05625  C 1.06953125000001 19.05625  0.516406249999989 18.57578125  0.497656250000006 17.93828125  Z " fill-rule="evenodd" />
    </mask>
  </defs>
  <g transform="matrix(1 0 0 1 -203 -24 )">
    <path d="M 21.47890625 12.7  C 21.4765625 13.33515625  21.00078125 13.85546875  20.41015625 13.85546875  L 8.24140625000001 13.85546875  C 7.65078124999999 13.85546875  7.17265624999999 13.33515625  7.17265624999999 12.7  C 7.17265624999999 12.06484375  7.6484375 11.54453125  8.24140625000001 11.54453125  L 20.41015625 11.54453125  C 21.00078125 11.54453125  21.47890625 12.06484375  21.47890625 12.7  Z M 21.47890625 7.30703125  C 21.4765625 7.9421875  21.00078125 8.4625  20.41015625 8.4625  L 8.24140625000001 8.4625  C 7.65078124999999 8.4625  7.17265624999999 7.9421875  7.17265624999999 7.30703125  C 7.17265624999999 6.671875  7.6484375 6.1515625  8.24140625000001 6.1515625  L 20.41015625 6.1515625  C 21.00078125 6.1515625  21.47890625 6.671875  21.47890625 7.30703125  Z M 21.47890625 2.07109375  C 21.49765625 2.725  20.98203125 3.2640625  20.3328125 3.2640625  L 1.69999999999999 3.2640625  C 1.06953125000001 3.2640625  0.516406249999989 2.78359375  0.497656250000006 2.14609375  C 0.478906249999994 1.4921875  0.9921875 0.953125  1.64140624999999 0.953125  L 20.2765625 0.953125  C 20.90703125 0.953125  21.46015625 1.43359375  21.47890625 2.07109375  Z M 0.497656250000006 13.83671875  C 0.497656250000006 13.85546875  0.497656250000006 13.85546875  0.497656250000006 13.83671875  L 0.497656250000006 6.17265625  L 5.81796875000001 10.0046875  L 0.497656250000006 13.83671875  Z M 0.497656250000006 17.93828125  C 0.478906249999994 17.284375  0.9921875 16.7453125  1.64140624999999 16.7453125  L 20.2765625 16.7453125  C 20.90703125 16.7453125  21.46015625 17.22578125  21.47890625 17.86328125  C 21.49765625 18.5171875  20.98203125 19.05625  20.33515625 19.05625  L 1.69999999999999 19.05625  C 1.06953125000001 19.05625  0.516406249999989 18.57578125  0.497656250000006 17.93828125  Z " fill-rule="nonzero" fill="#000c17" stroke="none" fill-opacity="0.8" transform="matrix(1 0 0 1 203 24 )" />
    <path d="M 21.47890625 12.7  C 21.4765625 13.33515625  21.00078125 13.85546875  20.41015625 13.85546875  L 8.24140625000001 13.85546875  C 7.65078124999999 13.85546875  7.17265624999999 13.33515625  7.17265624999999 12.7  C 7.17265624999999 12.06484375  7.6484375 11.54453125  8.24140625000001 11.54453125  L 20.41015625 11.54453125  C 21.00078125 11.54453125  21.47890625 12.06484375  21.47890625 12.7  Z " stroke-width="2" stroke="#000c17" fill="none" stroke-opacity="0.8" transform="matrix(1 0 0 1 203 24 )" mask="url(#clip1003)" />
    <path d="M 21.47890625 7.30703125  C 21.4765625 7.9421875  21.00078125 8.4625  20.41015625 8.4625  L 8.24140625000001 8.4625  C 7.65078124999999 8.4625  7.17265624999999 7.9421875  7.17265624999999 7.30703125  C 7.17265624999999 6.671875  7.6484375 6.1515625  8.24140625000001 6.1515625  L 20.41015625 6.1515625  C 21.00078125 6.1515625  21.47890625 6.671875  21.47890625 7.30703125  Z " stroke-width="2" stroke="#000c17" fill="none" stroke-opacity="0.8" transform="matrix(1 0 0 1 203 24 )" mask="url(#clip1003)" />
    <path d="M 21.47890625 2.07109375  C 21.49765625 2.725  20.98203125 3.2640625  20.3328125 3.2640625  L 1.69999999999999 3.2640625  C 1.06953125000001 3.2640625  0.516406249999989 2.78359375  0.497656250000006 2.14609375  C 0.478906249999994 1.4921875  0.9921875 0.953125  1.64140624999999 0.953125  L 20.2765625 0.953125  C 20.90703125 0.953125  21.46015625 1.43359375  21.47890625 2.07109375  Z " stroke-width="2" stroke="#000c17" fill="none" stroke-opacity="0.8" transform="matrix(1 0 0 1 203 24 )" mask="url(#clip1003)" />
    <path d="M 0.497656250000006 13.83671875  C 0.497656250000006 13.85546875  0.497656250000006 13.85546875  0.497656250000006 13.83671875  L 0.497656250000006 6.17265625  L 5.81796875000001 10.0046875  L 0.497656250000006 13.83671875  Z " stroke-width="2" stroke="#000c17" fill="none" stroke-opacity="0.8" transform="matrix(1 0 0 1 203 24 )" mask="url(#clip1003)" />
    <path d="M 0.497656250000006 17.93828125  C 0.478906249999994 17.284375  0.9921875 16.7453125  1.64140624999999 16.7453125  L 20.2765625 16.7453125  C 20.90703125 16.7453125  21.46015625 17.22578125  21.47890625 17.86328125  C 21.49765625 18.5171875  20.98203125 19.05625  20.33515625 19.05625  L 1.69999999999999 19.05625  C 1.06953125000001 19.05625  0.516406249999989 18.57578125  0.497656250000006 17.93828125  Z " stroke-width="2" stroke="#000c17" fill="none" stroke-opacity="0.8" transform="matrix(1 0 0 1 203 24 )" mask="url(#clip1003)" />
  </g>
</svg>