<?xml version="1.0" encoding="utf-8"?>
<svg version="1.1" xmlns:xlink="http://www.w3.org/1999/xlink" width="52px" height="52px" xmlns="http://www.w3.org/2000/svg">
  <g transform="matrix(1 0 0 1 -253 -79 )">
    <path d="M 279 79  C 293.56 79  305 90.44  305 105  C 305 119.56  293.56 131  279 131  C 264.44 131  253 119.56  253 105  C 253 90.44  264.44 79  279 79  Z " fill-rule="nonzero" fill="#ffffff" stroke="none" />
    <path d="M 279 79.5  C 293.28 79.5  304.5 90.72  304.5 105  C 304.5 119.28  293.28 130.5  279 130.5  C 264.72 130.5  253.5 119.28  253.5 105  C 253.5 90.72  264.72 79.5  279 79.5  Z " stroke-width="1" stroke="#797979" fill="none" />
  </g>
</svg>