<?xml version="1.0" encoding="utf-8"?>
<svg version="1.1" xmlns:xlink="http://www.w3.org/1999/xlink" width="819px" height="245px" xmlns="http://www.w3.org/2000/svg">
  <defs>
    <filter x="627px" y="141px" width="819px" height="245px" filterUnits="userSpaceOnUse" id="filter738">
      <feOffset dx="0" dy="0" in="SourceAlpha" result="shadowOffsetInner" />
      <feGaussianBlur stdDeviation="10" in="shadowOffsetInner" result="shadowGaussian" />
      <feComposite in2="shadowGaussian" operator="atop" in="SourceAlpha" result="shadowComposite" />
      <feColorMatrix type="matrix" values="0 0 0 0 0  0 0 0 0 0  0 0 0 0 0  0 0 0 0.0627450980392157 0  " in="shadowComposite" />
    </filter>
    <g id="widget739">
      <path d="M 648 166  A 4 4 0 0 1 652 162 L 1421 162  A 4 4 0 0 1 1425 166 L 1425 361  A 4 4 0 0 1 1421 365 L 652 365  A 4 4 0 0 1 648 361 L 648 166  Z " fill-rule="nonzero" fill="#ffffff" stroke="none" />
      <path d="M 647.5 166  A 4.5 4.5 0 0 1 652 161.5 L 1421 161.5  A 4.5 4.5 0 0 1 1425.5 166 L 1425.5 361  A 4.5 4.5 0 0 1 1421 365.5 L 652 365.5  A 4.5 4.5 0 0 1 647.5 361 L 647.5 166  Z " stroke-width="1" stroke="#797979" fill="none" stroke-opacity="0.0352941176470588" />
    </g>
  </defs>
  <g transform="matrix(1 0 0 1 -627 -141 )">
    <use xlink:href="#widget739" filter="url(#filter738)" />
    <use xlink:href="#widget739" />
  </g>
</svg>