<?xml version="1.0" encoding="utf-8"?>
<svg version="1.1" xmlns:xlink="http://www.w3.org/1999/xlink" width="419px" height="240px" xmlns="http://www.w3.org/2000/svg">
  <defs>
    <filter x="233px" y="142px" width="419px" height="240px" filterUnits="userSpaceOnUse" id="filter1008">
      <feOffset dx="0" dy="0" in="SourceAlpha" result="shadowOffsetInner" />
      <feGaussianBlur stdDeviation="10" in="shadowOffsetInner" result="shadowGaussian" />
      <feComposite in2="shadowGaussian" operator="atop" in="SourceAlpha" result="shadowComposite" />
      <feColorMatrix type="matrix" values="0 0 0 0 0  0 0 0 0 0  0 0 0 0 0  0 0 0 0.0627450980392157 0  " in="shadowComposite" />
    </filter>
    <g id="widget1009">
      <path d="M 254 167  A 4 4 0 0 1 258 163 L 627 163  A 4 4 0 0 1 631 167 L 631 357  A 4 4 0 0 1 627 361 L 258 361  A 4 4 0 0 1 254 357 L 254 167  Z " fill-rule="nonzero" fill="#ffffff" stroke="none" />
      <path d="M 253.5 167  A 4.5 4.5 0 0 1 258 162.5 L 627 162.5  A 4.5 4.5 0 0 1 631.5 167 L 631.5 357  A 4.5 4.5 0 0 1 627 361.5 L 258 361.5  A 4.5 4.5 0 0 1 253.5 357 L 253.5 167  Z " stroke-width="1" stroke="#797979" fill="none" stroke-opacity="0.0352941176470588" />
    </g>
  </defs>
  <g transform="matrix(1 0 0 1 -233 -142 )">
    <use xlink:href="#widget1009" filter="url(#filter1008)" />
    <use xlink:href="#widget1009" />
  </g>
</svg>