<?xml version="1.0" encoding="utf-8"?>
<svg version="1.1" xmlns:xlink="http://www.w3.org/1999/xlink" width="28px" height="28px" xmlns="http://www.w3.org/2000/svg">
  <g transform="matrix(1 0 0 1 -268 -309 )">
    <path d="M 282 309  C 289.84 309  296 315.16  296 323  C 296 330.84  289.84 337  282 337  C 274.16 337  268 330.84  268 323  C 268 315.16  274.16 309  282 309  Z " fill-rule="nonzero" fill="#ffffff" stroke="none" />
    <path d="M 282 309.5  C 289.56 309.5  295.5 315.44  295.5 323  C 295.5 330.56  289.56 336.5  282 336.5  C 274.44 336.5  268.5 330.56  268.5 323  C 268.5 315.44  274.44 309.5  282 309.5  Z " stroke-width="1" stroke="#797979" fill="none" />
  </g>
</svg>