<?xml version="1.0" encoding="utf-8"?>
<svg version="1.1" xmlns:xlink="http://www.w3.org/1999/xlink" width="100px" height="22px" xmlns="http://www.w3.org/2000/svg">
  <g transform="matrix(1 0 0 1 -1240 -134 )">
    <path d="M 1241 136  A 1 1 0 0 1 1242 135 L 1338 135  A 1 1 0 0 1 1339 136 L 1339 154  A 1 1 0 0 1 1338 155 L 1242 155  A 1 1 0 0 1 1241 154 L 1241 136  Z " fill-rule="nonzero" fill="#ffffff" stroke="none" />
    <path d="M 1240.5 136  A 1.5 1.5 0 0 1 1242 134.5 L 1338 134.5  A 1.5 1.5 0 0 1 1339.5 136 L 1339.5 154  A 1.5 1.5 0 0 1 1338 155.5 L 1242 155.5  A 1.5 1.5 0 0 1 1240.5 154 L 1240.5 136  Z " stroke-width="1" stroke="#797979" fill="none" stroke-opacity="0.0745098039215686" />
  </g>
</svg>