<?xml version="1.0" encoding="utf-8"?>
<svg version="1.1" xmlns:xlink="http://www.w3.org/1999/xlink" width="14px" height="14px" xmlns="http://www.w3.org/2000/svg">
  <g transform="matrix(1 0 0 1 -1335 -236 )">
    <path d="M 1342 236.5  C 1345.64 236.5  1348.5 239.36  1348.5 243  C 1348.5 246.64  1345.64 249.5  1342 249.5  C 1338.36 249.5  1335.5 246.64  1335.5 243  C 1335.5 239.36  1338.36 236.5  1342 236.5  Z " fill-rule="nonzero" fill="#ffffff" stroke="none" />
    <path d="M 1342 236.5  C 1345.64 236.5  1348.5 239.36  1348.5 243  C 1348.5 246.64  1345.64 249.5  1342 249.5  C 1338.36 249.5  1335.5 246.64  1335.5 243  C 1335.5 239.36  1338.36 236.5  1342 236.5  Z " stroke-width="1" stroke="#797979" fill="none" stroke-opacity="0.270588235294118" />
  </g>
</svg>