<?xml version="1.0" encoding="utf-8"?>
<svg version="1.1" xmlns:xlink="http://www.w3.org/1999/xlink" width="1210px" height="840px" xmlns="http://www.w3.org/2000/svg">
  <defs>
    <filter x="1612px" y="2405px" width="1210px" height="840px" filterUnits="userSpaceOnUse" id="filter938">
      <feOffset dx="0" dy="0" in="SourceAlpha" result="shadowOffsetInner" />
      <feGaussianBlur stdDeviation="10" in="shadowOffsetInner" result="shadowGaussian" />
      <feComposite in2="shadowGaussian" operator="atop" in="SourceAlpha" result="shadowComposite" />
      <feColorMatrix type="matrix" values="0 0 0 0 0  0 0 0 0 0  0 0 0 0 0  0 0 0 0.0627450980392157 0  " in="shadowComposite" />
    </filter>
    <g id="widget939">
      <path d="M 1633 2430  A 4 4 0 0 1 1637 2426 L 2797 2426  A 4 4 0 0 1 2801 2430 L 2801 3220  A 4 4 0 0 1 2797 3224 L 1637 3224  A 4 4 0 0 1 1633 3220 L 1633 2430  Z " fill-rule="nonzero" fill="#ffffff" stroke="none" />
      <path d="M 1632.5 2430  A 4.5 4.5 0 0 1 1637 2425.5 L 2797 2425.5  A 4.5 4.5 0 0 1 2801.5 2430 L 2801.5 3220  A 4.5 4.5 0 0 1 2797 3224.5 L 1637 3224.5  A 4.5 4.5 0 0 1 1632.5 3220 L 1632.5 2430  Z " stroke-width="1" stroke="#797979" fill="none" stroke-opacity="0.0352941176470588" />
    </g>
  </defs>
  <g transform="matrix(1 0 0 1 -1612 -2405 )">
    <use xlink:href="#widget939" filter="url(#filter938)" />
    <use xlink:href="#widget939" />
  </g>
</svg>