<?xml version="1.0" encoding="utf-8"?>
<svg version="1.1" xmlns:xlink="http://www.w3.org/1999/xlink" width="12px" height="12px" xmlns="http://www.w3.org/2000/svg">
  <g transform="matrix(1 0 0 1 -1736 -3002 )">
    <path d="M 6.9296875 9.9296875  C 6.9765625 9.8828125  7 9.82291666666667  7 9.75  L 7 8.25  C 7 8.17708333333333  6.9765625 8.1171875  6.9296875 8.0703125  C 6.8828125 8.0234375  6.82291666666667 8  6.75 8  L 5.25 8  C 5.17708333333333 8  5.1171875 8.0234375  5.0703125 8.0703125  C 5.0234375 8.1171875  5 8.17708333333333  5 8.25  L 5 9.75  C 5 9.82291666666667  5.0234375 9.8828125  5.0703125 9.9296875  C 5.1171875 9.9765625  5.17708333333333 10  5.25 10  L 6.75 10  C 6.82291666666667 10  6.8828125 9.9765625  6.9296875 9.9296875  Z M 8.90234375 5.1328125  C 8.96744791666667 4.94010416666667  9 4.72916666666667  9 4.5  C 9 4.04166666666667  8.85546875 3.6171875  8.56640625 3.2265625  C 8.27734375 2.8359375  7.91666666666667 2.53385416666667  7.484375 2.3203125  C 7.05208333333333 2.10677083333333  6.609375 2  6.15625 2  C 4.890625 2  3.92447916666667 2.5546875  3.2578125 3.6640625  C 3.1796875 3.7890625  3.20052083333333 3.8984375  3.3203125 3.9921875  L 4.3515625 4.7734375  C 4.38802083333333 4.8046875  4.4375 4.8203125  4.5 4.8203125  C 4.58333333333333 4.8203125  4.6484375 4.7890625  4.6953125 4.7265625  C 4.97135416666667 4.37239583333333  5.1953125 4.1328125  5.3671875 4.0078125  C 5.54427083333333 3.8828125  5.76822916666667 3.8203125  6.0390625 3.8203125  C 6.2890625 3.8203125  6.51171875 3.88802083333333  6.70703125 4.0234375  C 6.90234375 4.15885416666667  7 4.3125  7 4.484375  C 7 4.68229166666667  6.94791666666667 4.84114583333333  6.84375 4.9609375  C 6.73958333333333 5.08072916666667  6.5625 5.19791666666667  6.3125 5.3125  C 5.984375 5.45833333333333  5.68359375 5.68359375  5.41015625 5.98828125  C 5.13671875 6.29296875  5 6.61979166666667  5 6.96875  L 5 7.25  C 5 7.32291666666667  5.0234375 7.3828125  5.0703125 7.4296875  C 5.1171875 7.4765625  5.17708333333333 7.5  5.25 7.5  L 6.75 7.5  C 6.82291666666667 7.5  6.8828125 7.4765625  6.9296875 7.4296875  C 6.9765625 7.3828125  7 7.32291666666667  7 7.25  C 7 7.15104166666667  7.05598958333333 7.02213541666667  7.16796875 6.86328125  C 7.27994791666667 6.70442708333333  7.421875 6.57552083333333  7.59375 6.4765625  C 7.76041666666667 6.3828125  7.88802083333333 6.30859375  7.9765625 6.25390625  C 8.06510416666667 6.19921875  8.18489583333333 6.10807291666667  8.3359375 5.98046875  C 8.48697916666667 5.85286458333333  8.60286458333333 5.72786458333333  8.68359375 5.60546875  C 8.76432291666667 5.48307291666667  8.83723958333333 5.32552083333333  8.90234375 5.1328125  Z M 11.1953125 2.98828125  C 11.7317708333333 3.90755208333333  12 4.91145833333333  12 6  C 12 7.08854166666667  11.7317708333333 8.09244791666666  11.1953125 9.01171875  C 10.6588541666667 9.93098958333333  9.93098958333333 10.6588541666667  9.01171875 11.1953125  C 8.09244791666667 11.7317708333333  7.08854166666667 12  6 12  C 4.91145833333333 12  3.90755208333333 11.7317708333333  2.98828125 11.1953125  C 2.06901041666667 10.6588541666667  1.34114583333333 9.93098958333333  0.8046875 9.01171875  C 0.268229166666667 8.09244791666666  0 7.08854166666667  0 6  C 0 4.91145833333333  0.268229166666667 3.90755208333333  0.8046875 2.98828125  C 1.34114583333333 2.06901041666667  2.06901041666667 1.34114583333333  2.98828125 0.8046875  C 3.90755208333333 0.268229166666666  4.91145833333333 0  6 0  C 7.08854166666667 0  8.09244791666667 0.268229166666666  9.01171875 0.8046875  C 9.93098958333333 1.34114583333333  10.6588541666667 2.06901041666667  11.1953125 2.98828125  Z " fill-rule="nonzero" fill="#333333" stroke="none" fill-opacity="0.529411764705882" transform="matrix(1 0 0 1 1736 3002 )" />
  </g>
</svg>