<?xml version="1.0" encoding="utf-8"?>
<svg version="1.1" xmlns:xlink="http://www.w3.org/1999/xlink" width="209px" height="180px" xmlns="http://www.w3.org/2000/svg">
  <g transform="matrix(1 0 0 1 -1866 -2583 )">
    <path d="M 176.650619921835 179.658724835125  L 164.871156800432 167.34686402496  C 181.40812311102 151.618102550912  191.583333333333 129.316774169928  191.583333333333 104.247104247104  C 191.583333333333 55.5984555984556  153.266666666667 17.3745173745174  104.5 17.3745173745174  C 55.7333333333333 17.3745173745174  17.4166666666667 55.5984555984556  17.4166666666667 104.247104247104  C 17.4166666666667 127.428670876063  26.1169165029618 148.243184390641  40.5023212141922 163.682846111106  L 28.0146256994862 175.280383102602  C 10.0098870419889 155.987427025381  0 130.606573995506  0 104.247104247104  C 0 46.6730183574076  46.7862436426821 0  104.5 0  C 162.213756357318 0  209 46.6730183574076  209 104.247104247104  C 209 132.738038657452  197.310759775856 159.987542252743  176.650619921835 179.658724835125  Z " fill-rule="nonzero" fill="#ff3399" stroke="none" transform="matrix(1 0 0 1 1866 2583 )" />
  </g>
</svg>