<?xml version="1.0" encoding="utf-8"?>
<svg version="1.1" xmlns:xlink="http://www.w3.org/1999/xlink" width="19px" height="11px" xmlns="http://www.w3.org/2000/svg">
  <g transform="matrix(1 0 0 1 -2008 -4694 )">
    <path d="M 18.6474609375 0.362847222222223  C 18.8824869791667 0.604745370370369  19 0.891203703703701  19 1.22222222222222  C 19 1.55324074074074  18.8824869791667 1.83969907407407  18.6474609375 2.08159722222222  L 10.3349609375 10.6371527777778  C 10.0999348958333 10.8790509259259  9.82161458333333 11  9.5 11  C 9.17838541666667 11  8.90006510416667 10.8790509259259  8.6650390625 10.6371527777778  L 0.3525390625 2.08159722222222  C 0.117513020833333 1.83969907407407  0 1.55324074074074  0 1.22222222222222  C 0 0.891203703703701  0.117513020833333 0.604745370370369  0.3525390625 0.362847222222223  C 0.587565104166667 0.120949074074073  0.865885416666667 0  1.1875 0  L 17.8125 0  C 18.1341145833333 0  18.4124348958333 0.120949074074073  18.6474609375 0.362847222222223  Z " fill-rule="nonzero" fill="#000000" stroke="none" fill-opacity="0.466666666666667" transform="matrix(1 0 0 1 2008 4694 )" />
  </g>
</svg>