<?xml version="1.0" encoding="utf-8"?>
<svg version="1.1" xmlns:xlink="http://www.w3.org/1999/xlink" width="1209px" height="731px" xmlns="http://www.w3.org/2000/svg">
  <defs>
    <filter x="1615px" y="3356px" width="1209px" height="731px" filterUnits="userSpaceOnUse" id="filter1164">
      <feOffset dx="0" dy="0" in="SourceAlpha" result="shadowOffsetInner" />
      <feGaussianBlur stdDeviation="10" in="shadowOffsetInner" result="shadowGaussian" />
      <feComposite in2="shadowGaussian" operator="atop" in="SourceAlpha" result="shadowComposite" />
      <feColorMatrix type="matrix" values="0 0 0 0 0  0 0 0 0 0  0 0 0 0 0  0 0 0 0.0627450980392157 0  " in="shadowComposite" />
    </filter>
    <g id="widget1165">
      <path d="M 1636 3381  A 4 4 0 0 1 1640 3377 L 2799 3377  A 4 4 0 0 1 2803 3381 L 2803 4062  A 4 4 0 0 1 2799 4066 L 1640 4066  A 4 4 0 0 1 1636 4062 L 1636 3381  Z " fill-rule="nonzero" fill="#ffffff" stroke="none" />
      <path d="M 1635.5 3381  A 4.5 4.5 0 0 1 1640 3376.5 L 2799 3376.5  A 4.5 4.5 0 0 1 2803.5 3381 L 2803.5 4062  A 4.5 4.5 0 0 1 2799 4066.5 L 1640 4066.5  A 4.5 4.5 0 0 1 1635.5 4062 L 1635.5 3381  Z " stroke-width="1" stroke="#797979" fill="none" stroke-opacity="0.0352941176470588" />
    </g>
  </defs>
  <g transform="matrix(1 0 0 1 -1615 -3356 )">
    <use xlink:href="#widget1165" filter="url(#filter1164)" />
    <use xlink:href="#widget1165" />
  </g>
</svg>