<?xml version="1.0" encoding="utf-8"?>
<svg version="1.1" xmlns:xlink="http://www.w3.org/1999/xlink" width="159px" height="110px" xmlns="http://www.w3.org/2000/svg">
  <defs>
    <filter x="2585px" y="3577px" width="159px" height="110px" filterUnits="userSpaceOnUse" id="filter1171">
      <feOffset dx="5" dy="5" in="SourceAlpha" result="shadowOffsetInner" />
      <feGaussianBlur stdDeviation="2.5" in="shadowOffsetInner" result="shadowGaussian" />
      <feComposite in2="shadowGaussian" operator="atop" in="SourceAlpha" result="shadowComposite" />
      <feColorMatrix type="matrix" values="0 0 0 0 0  0 0 0 0 0  0 0 0 0 0  0 0 0 0.145098039215686 0  " in="shadowComposite" />
    </filter>
    <g id="widget1172">
      <path d="M 2586 3582  A 4 4 0 0 1 2590 3578 L 2729 3578  A 4 4 0 0 1 2733 3582 L 2733 3672  A 4 4 0 0 1 2729 3676 L 2590 3676  A 4 4 0 0 1 2586 3672 L 2586 3582  Z " fill-rule="nonzero" fill="#ffffff" stroke="none" />
      <path d="M 2585.5 3582  A 4.5 4.5 0 0 1 2590 3577.5 L 2729 3577.5  A 4.5 4.5 0 0 1 2733.5 3582 L 2733.5 3672  A 4.5 4.5 0 0 1 2729 3676.5 L 2590 3676.5  A 4.5 4.5 0 0 1 2585.5 3672 L 2585.5 3582  Z " stroke-width="1" stroke="#797979" fill="none" stroke-opacity="0.184313725490196" />
    </g>
  </defs>
  <g transform="matrix(1 0 0 1 -2585 -3577 )">
    <use xlink:href="#widget1172" filter="url(#filter1171)" />
    <use xlink:href="#widget1172" />
  </g>
</svg>