<?xml version="1.0" encoding="utf-8"?>
<svg version="1.1" xmlns:xlink="http://www.w3.org/1999/xlink" width="1081px" height="287px" xmlns="http://www.w3.org/2000/svg">
  <defs>
    <linearGradient gradientUnits="userSpaceOnUse" x1="537.5" y1="0" x2="537.5" y2="281" id="LinearGradient1035">
      <stop id="Stop1036" stop-color="#ffffff" stop-opacity="0" offset="0" />
      <stop id="Stop1037" stop-color="#ffffff" stop-opacity="0" offset="1" />
    </linearGradient>
  </defs>
  <g transform="matrix(1 0 0 1 -1716.5 -3508.5 )">
    <path d="M 1074.09986885178 0  L 0.585585585585576 280.315315315315  C 66.3599432965704 257.667144934231  136.757355089585 196.27125399898  193.378378378378 173.108108108108  C 233.018018018018 156.891891891892  268.390970267253 118.798792533768  313.651387615635 124.137931034483  C 338.907302890952 127.11724137931  400.912697545901 96.4779973443986  423.503875322944 82.4275862068966  C 467.6468482935 54.9732000217622  495.854198650249 106.080884587705  519.181848487374 66.9435648372997  C 528.652816715618 51.0539096648859  550.849248796211 69.5172413793103  563.477206433869 52.6344827586207  C 576.105164071528 35.751724137931  599.56005556347 51.0975567395419  623.718893241103 45.6827586206897  C 704.71750328853 27.5282792054489  790.017573604243 28.2531193104801  816.846653887824 52.6344827586207  C 835.763606518582 69.8255714037347  868.133455707296 42.7034482758621  910.752812734395 45.6827586206897  C 946.106600051464 48.1541686003292  1074.09986885178 0.377829933200928  1074.09986885178 0.377829933200928  L 1075 0  L 1074.09986885178 0  Z " fill-rule="nonzero" fill="url(#LinearGradient1035)" stroke="none" transform="matrix(1 0 0 1 1719 3511 )" />
    <path d="M 0.585585585585576 280.315315315315  C 66.3599432965704 257.667144934231  136.757355089585 196.27125399898  193.378378378378 173.108108108108  C 233.018018018018 156.891891891892  268.390970267253 118.798792533768  313.651387615635 124.137931034483  C 338.907302890952 127.11724137931  400.912697545901 96.4779973443986  423.503875322944 82.4275862068966  C 467.6468482935 54.9732000217622  495.854198650249 106.080884587705  519.181848487374 66.9435648372997  C 528.652816715618 51.0539096648859  550.849248796211 69.5172413793103  563.477206433869 52.6344827586207  C 576.105164071528 35.751724137931  599.56005556347 51.0975567395419  623.718893241103 45.6827586206897  C 704.71750328853 27.5282792054489  790.017573604243 28.2531193104801  816.846653887824 52.6344827586207  C 835.763606518582 69.8255714037347  868.133455707296 42.7034482758621  910.752812734395 45.6827586206897  C 946.106600051464 48.1541686003292  1074.09986885178 0.377829933200928  1074.09986885178 0.377829933200928  L 1075 0  L 1074.09986885178 0  " stroke-width="5" stroke="#0045ff" fill="none" transform="matrix(1 0 0 1 1719 3511 )" />
  </g>
</svg>